<?xml version="1.0" standalone="no"?>
<!DOCTYPE svg PUBLIC "-//W3C//DTD SVG 20010904//EN"
 "http://www.w3.org/TR/2001/REC-SVG-20010904/DTD/svg10.dtd">
<svg version="1.0" xmlns="http://www.w3.org/2000/svg"
 width="820.000000pt" height="819.000000pt" viewBox="0 0 820.000000 819.000000"
 preserveAspectRatio="xMidYMid meet">

<g transform="translate(0.000000,819.000000) scale(0.100000,-0.100000)"
fill="#000000" stroke="none">
<path d="M3735 7969 c-281 -30 -594 -131 -818 -265 -168 -101 -383 -296 -501
-454 -258 -347 -392 -837 -357 -1307 15 -195 41 -354 93 -557 l40 -159 -26
-24 c-15 -13 -24 -29 -20 -34 3 -5 0 -8 -8 -7 -21 5 -69 -103 -78 -179 -5 -40
-5 -69 0 -71 5 -2 7 -16 3 -32 -3 -16 1 -53 8 -82 7 -29 12 -56 11 -60 -1 -5
2 -8 7 -8 5 0 9 -6 8 -12 -1 -35 4 -49 15 -42 6 4 8 3 5 -3 -10 -16 23 -104
35 -96 7 3 8 1 4 -5 -8 -14 28 -84 39 -74 5 4 5 1 1 -6 -9 -15 12 -45 25 -36
5 3 6 -3 2 -12 -4 -12 -3 -15 5 -10 8 4 12 0 12 -11 1 -25 26 -56 39 -48 6 3
9 0 5 -8 -7 -19 113 -130 133 -123 8 3 11 2 8 -4 -5 -8 33 -36 45 -33 3 1 14
-45 25 -103 12 -67 22 -99 28 -91 6 8 7 6 3 -7 -8 -23 26 -138 65 -223 16 -35
29 -68 29 -74 0 -6 5 -7 12 -3 6 4 8 3 4 -4 -8 -13 31 -92 46 -92 5 0 6 -5 2
-11 -4 -7 4 -20 17 -31 13 -11 18 -17 10 -13 -9 5 -8 0 4 -18 10 -17 23 -24
33 -20 14 4 14 3 3 -5 -12 -9 -7 -20 28 -67 24 -31 45 -54 48 -51 3 3 0 13 -8
22 -12 15 -12 17 1 12 8 -3 15 -16 15 -29 0 -29 13 -51 25 -44 5 3 12 0 16 -6
4 -8 3 -9 -4 -5 -20 12 -13 -6 9 -25 12 -10 26 -16 32 -12 5 3 8 2 4 -3 -8
-14 20 -47 34 -38 7 4 10 3 5 -4 -3 -6 5 -23 18 -38 21 -25 26 -27 42 -14 16
12 17 12 6 0 -10 -12 -6 -19 19 -42 17 -16 34 -26 37 -24 4 2 7 -108 7 -245 0
-137 -3 -249 -6 -249 -35 0 -255 -35 -342 -55 -180 -40 -479 -147 -499 -177
-4 -7 -8 -9 -8 -5 0 4 -45 -15 -100 -44 -60 -30 -98 -55 -94 -61 4 -7 2 -8 -4
-4 -6 4 -53 -21 -104 -55 -211 -140 -421 -332 -567 -519 -45 -58 -86 -111 -92
-118 -36 -44 -131 -209 -194 -335 -147 -295 -236 -650 -247 -984 l-3 -83 2047
0 2048 0 0 100 0 100 -139 0 -140 0 -70 212 c-39 117 -116 348 -171 513 l-101
300 20 40 c11 22 55 112 97 200 42 88 88 185 103 215 15 30 28 57 28 60 1 3 7
19 14 35 15 34 25 45 89 95 72 56 79 63 73 73 -3 6 -1 7 5 3 14 -8 188 127
184 144 -1 6 2 9 8 5 12 -7 136 93 132 107 -1 5 2 6 8 3 7 -4 22 3 35 15 22
20 30 22 87 16 153 -17 369 -70 553 -136 176 -63 457 -228 630 -370 88 -72
300 -299 378 -405 177 -241 309 -527 377 -820 15 -65 50 -274 50 -299 0 -3
-137 -6 -305 -6 l-305 0 0 -100 0 -100 404 0 c223 0 407 3 409 7 7 16 -12 272
-28 369 -53 316 -158 606 -320 879 -88 150 -267 381 -286 370 -5 -3 -6 0 -4 7
8 20 -197 215 -327 311 -211 155 -399 260 -618 344 -187 71 -340 107 -637 149
l-33 5 0 238 c0 199 2 241 15 251 8 7 12 16 9 21 -3 5 2 9 11 9 8 0 18 7 21
15 4 8 10 12 15 9 13 -8 11 10 -3 26 -11 12 -10 12 5 1 16 -12 24 -7 77 45 55
54 86 105 73 117 -3 3 5 3 18 0 19 -5 21 -3 16 16 -7 27 1 53 14 45 5 -3 9
-10 9 -15 0 -6 -4 -7 -10 -4 -5 3 -10 1 -10 -4 0 -28 25 -4 75 73 36 56 53 91
49 103 -5 14 -4 15 4 4 8 -11 12 -9 22 9 9 17 9 21 0 15 -8 -5 -7 0 2 14 7 12
16 21 21 21 4 0 5 4 2 10 -3 6 -1 10 5 10 6 0 8 5 5 10 -4 6 -11 7 -17 4 -7
-4 -8 -2 -4 4 4 6 12 9 19 6 14 -5 85 157 94 214 3 21 10 43 16 49 5 7 7 20 3
28 -3 8 -2 15 3 15 5 0 12 21 16 48 5 26 10 52 11 57 2 6 6 28 10 49 6 35 5
39 -10 33 -11 -4 -15 -3 -11 4 4 6 14 8 22 5 21 -9 38 4 22 16 -10 7 -8 8 7 3
24 -6 100 48 98 71 -1 8 2 11 7 8 13 -8 111 97 105 113 -3 8 -2 12 3 9 5 -3
20 12 35 34 14 22 24 40 20 40 -3 0 2 7 11 16 9 10 13 24 10 38 -5 17 -4 18 4
6 8 -11 11 -11 12 -2 2 19 4 23 29 77 13 28 23 66 24 87 1 20 5 34 10 31 4 -3
5 5 1 17 -5 17 -4 21 6 15 9 -6 11 -2 7 13 -3 12 -2 22 2 24 9 3 13 71 11 158
-1 42 -4 51 -12 40 -8 -12 -9 -10 -4 8 8 28 -3 64 -17 56 -7 -5 -9 -2 -5 8 6
18 -40 91 -52 83 -5 -2 -17 5 -27 18 l-19 22 23 -19 c12 -11 22 -15 22 -10 0
5 -14 18 -30 29 -17 11 -28 26 -25 34 3 7 25 95 49 195 118 482 133 815 50
1132 -117 454 -450 746 -900 789 -71 7 -72 8 -95 49 -159 288 -482 494 -862
550 -113 17 -364 19 -502 5z m1281 -1630 c91 -72 234 -226 297 -321 103 -154
166 -303 204 -478 16 -77 18 -143 18 -695 0 -681 -1 -696 -71 -901 -19 -57
-32 -110 -28 -116 4 -6 3 -8 -3 -5 -13 8 -26 -20 -16 -35 3 -6 1 -8 -4 -5 -10
6 -37 -43 -33 -59 1 -4 -2 -10 -8 -13 -19 -13 -82 -123 -76 -133 4 -6 3 -8 -3
-5 -16 10 -34 -18 -27 -39 3 -12 3 -14 -3 -8 -11 16 -87 -71 -77 -87 4 -7 3
-9 -3 -6 -12 7 -36 -16 -28 -26 3 -4 2 -5 -1 -3 -9 7 -52 -38 -46 -48 3 -5 0
-6 -5 -3 -13 8 -36 -17 -25 -28 4 -5 1 -5 -6 -1 -14 8 -109 -70 -104 -86 1 -5
-2 -7 -8 -3 -12 8 -85 -41 -85 -58 0 -6 -9 -12 -20 -12 -27 0 -67 -24 -60 -35
3 -6 0 -7 -8 -4 -8 3 -41 -8 -73 -24 -33 -16 -84 -37 -114 -48 -30 -10 -58
-23 -61 -28 -4 -5 -12 -5 -18 -2 -6 4 -11 2 -11 -4 0 -6 -4 -8 -10 -5 -18 11
-87 -15 -121 -45 -19 -17 -46 -37 -61 -45 -19 -11 -26 -21 -22 -33 5 -13 4
-14 -4 -3 -5 7 -15 10 -22 6 -18 -11 -122 -34 -166 -36 -21 -1 -67 6 -102 15
-34 9 -68 14 -74 10 -7 -4 -8 -3 -4 4 8 14 -30 35 -47 26 -6 -4 -9 -4 -5 1 8
8 -91 90 -99 81 -3 -3 2 -8 11 -12 9 -3 16 -11 16 -17 0 -6 -10 -1 -23 11 -13
12 -29 22 -35 22 -7 0 -12 4 -12 8 0 7 -87 35 -115 37 -5 1 -25 9 -43 18 -18
10 -38 15 -44 11 -7 -4 -8 -3 -4 4 4 7 3 12 -3 12 -17 0 -181 80 -181 89 0 4
-13 7 -30 6 -23 -1 -27 1 -19 11 8 9 4 17 -15 29 -14 9 -31 13 -37 9 -7 -4 -9
-3 -6 3 3 5 -8 20 -26 33 -18 13 -38 32 -46 43 -8 11 -19 16 -29 12 -9 -3 -13
-3 -9 1 10 11 -34 55 -47 47 -6 -3 -8 -3 -4 2 10 11 -11 37 -23 29 -5 -3 -8
-2 -7 3 5 15 -104 143 -115 136 -6 -3 -7 -1 -3 6 8 13 -53 113 -65 106 -4 -3
-11 0 -15 6 -5 8 -3 9 6 4 7 -4 11 -4 8 1 -40 87 -67 132 -73 126 -5 -4 -5 -1
-1 5 4 7 1 25 -7 40 -22 42 -45 104 -52 141 -4 17 -11 32 -17 32 -5 0 -8 6 -5
13 2 6 0 26 -5 42 -4 17 -15 82 -23 145 -18 135 -21 837 -5 998 23 226 117
370 295 457 138 67 266 90 560 100 352 12 574 62 830 185 184 88 320 184 460
325 66 66 125 118 130 116 6 -2 37 -26 71 -52z m-2816 -1163 c0 -2 -12 -11
-27 -20 l-28 -17 24 20 c23 21 31 25 31 17z m-45 -56 c3 -5 1 -10 -4 -10 -6 0
-11 5 -11 10 0 6 2 10 4 10 3 0 8 -4 11 -10z m-7 -45 c-3 -3 -9 2 -12 12 -6
14 -5 15 5 6 7 -7 10 -15 7 -18z m3798 -91 c10 -55 -3 -164 -30 -244 -29 -85
-97 -207 -147 -264 l-37 -41 4 37 c3 20 22 81 44 135 21 54 63 169 92 256 29
86 56 157 60 157 4 0 10 -16 14 -36z m-3626 -139 c29 -77 72 -184 96 -238 45
-101 56 -147 39 -153 -5 -2 -21 12 -34 31 -13 19 -28 32 -34 28 -6 -3 -7 -1
-3 6 4 6 -2 24 -13 40 -30 42 -88 172 -96 214 -4 21 -10 37 -14 37 -4 0 -7 15
-7 33 0 17 -1 46 -3 62 -6 54 -1 99 8 90 5 -6 33 -73 61 -150z m3797 -7 c-3
-7 -5 -2 -5 12 0 14 2 19 5 13 2 -7 2 -19 0 -25z m-3890 -320 c-3 -8 -6 -5 -6
6 -1 11 2 17 5 13 3 -3 4 -12 1 -19z m36 -103 c-3 -9 -8 -14 -10 -11 -3 3 -2
9 2 15 9 16 15 13 8 -4z m18 -18 c-10 -9 -11 -8 -5 6 3 10 9 15 12 12 3 -3 0
-11 -7 -18z m114 -127 c10 -11 16 -20 13 -20 -3 0 -13 9 -23 20 -10 11 -16 20
-13 20 3 0 13 -9 23 -20z m3315 -14 c0 -2 -7 -7 -16 -10 -8 -3 -12 -2 -9 4 6
10 25 14 25 6z m0 -25 c0 -5 -7 -12 -16 -15 -14 -5 -15 -4 -4 9 14 17 20 19
20 6z m-3173 -113 c-3 -7 -5 -2 -5 12 0 14 2 19 5 13 2 -7 2 -19 0 -25z m87
-364 c3 -8 2 -12 -4 -9 -6 3 -10 10 -10 16 0 14 7 11 14 -7z m73 -106 c-3 -8
-6 -5 -6 6 -1 11 2 17 5 13 3 -3 4 -12 1 -19z m23 -63 c0 -5 -5 -3 -10 5 -5 8
-10 20 -10 25 0 6 5 3 10 -5 5 -8 10 -19 10 -25z m2744 9 c3 -8 2 -12 -4 -9
-6 3 -10 10 -10 16 0 14 7 11 14 -7z m0 -42 c3 -5 -1 -9 -9 -9 -8 0 -12 4 -9
9 3 4 7 8 9 8 2 0 6 -4 9 -8z m-2676 -27 c-3 -3 -9 2 -12 12 -6 14 -5 15 5 6
7 -7 10 -15 7 -18z m2475 -46 c-13 -13 -33 -4 -32 14 0 9 2 9 6 0 8 -20 26
-15 18 5 -5 14 -4 15 6 5 10 -10 10 -16 2 -24z m-2282 -6 c13 -16 12 -17 -3
-4 -10 7 -18 15 -18 17 0 8 8 3 21 -13z m-184 -10 c0 -9 -4 -10 -14 -2 -7 6
-13 12 -13 14 0 1 6 2 13 2 8 0 14 -6 14 -14z m2633 1 c0 -8 -19 -13 -24 -6
-3 5 1 9 9 9 8 0 15 -2 15 -3z m-2409 -41 c13 -16 12 -17 -3 -4 -17 13 -22 21
-14 21 2 0 10 -8 17 -17z m2297 -58 c-3 -3 -9 2 -12 12 -6 14 -5 15 5 6 7 -7
10 -15 7 -18z m2 -39 c0 -2 -7 -7 -16 -10 -8 -3 -12 -2 -9 4 6 10 25 14 25 6z
m-1633 -312 c-3 -3 -12 -4 -19 -1 -8 3 -5 6 6 6 11 1 17 -2 13 -5z m880 -10
c-3 -3 -12 -4 -19 -1 -8 3 -5 6 6 6 11 1 17 -2 13 -5z m-1219 -47 c29 -15 58
-25 64 -21 7 5 8 2 3 -6 -6 -10 -4 -12 11 -6 10 4 15 4 11 0 -9 -9 73 -43 188
-79 46 -15 89 -33 96 -41 14 -17 33 -19 23 -2 -4 7 -3 8 5 4 6 -4 9 -11 6 -16
-8 -13 92 -70 111 -63 11 4 15 3 10 -5 -7 -12 90 -46 106 -36 5 3 15 0 24 -6
22 -19 195 -7 278 20 51 16 65 24 55 31 -10 7 -7 8 11 4 19 -5 38 4 77 33 29
21 50 42 48 46 -3 3 -3 4 1 2 13 -9 248 77 359 132 44 22 82 38 83 37 6 -6 3
-446 -3 -456 -9 -13 9 -11 23 3 9 9 12 9 12 0 0 -13 -1 -13 -37 -17 -32 -3
-206 -141 -197 -156 3 -5 -1 -7 -8 -4 -17 7 -90 -54 -82 -67 4 -7 2 -8 -5 -4
-13 9 -103 -62 -95 -75 3 -5 -1 -6 -9 -3 -17 6 -97 -57 -92 -73 2 -7 -2 -10
-12 -6 -12 5 -14 3 -8 -7 5 -9 4 -11 -4 -6 -6 4 -23 -5 -39 -21 -16 -15 -32
-29 -35 -30 -4 -2 -19 -10 -32 -19 -14 -9 -63 -27 -110 -40 l-84 -24 -78 21
c-88 24 -109 33 -140 61 -13 12 -27 17 -35 12 -7 -4 -10 -4 -6 0 6 8 -34 47
-91 89 -16 12 -55 43 -87 69 -32 26 -62 44 -68 41 -6 -3 -8 -3 -4 2 4 4 -9 21
-30 37 -20 16 -44 34 -52 41 -127 104 -212 167 -220 162 -5 -3 -9 95 -10 236
0 132 3 239 7 237 4 -2 32 -16 61 -31z m477 -7 c3 -5 1 -10 -4 -10 -6 0 -11 5
-11 10 0 6 2 10 4 10 3 0 8 -4 11 -10z m110 -238 c-3 -3 -11 0 -18 7 -9 10 -8
11 6 5 10 -3 15 -9 12 -12z m-830 -282 c10 -12 25 -18 32 -15 8 2 11 1 8 -4
-7 -12 112 -104 125 -96 5 3 8 0 5 -7 -3 -7 11 -24 32 -38 21 -14 54 -40 75
-58 22 -20 42 -31 49 -26 7 4 9 3 5 -4 -7 -11 106 -105 121 -100 4 2 9 -1 11
-7 2 -5 16 -23 32 -40 16 -16 52 -79 81 -140 28 -60 87 -184 131 -275 44 -91
80 -174 81 -185 1 -11 -75 -246 -167 -522 l-168 -503 -1264 0 c-695 0 -1264 3
-1264 6 0 4 7 54 16 113 27 190 87 397 166 581 36 83 141 284 158 300 3 3 18
25 34 50 94 145 267 339 416 465 309 262 685 436 1090 505 143 25 173 24 195
0z m1595 -94 c0 -3 -4 -8 -10 -11 -5 -3 -10 -1 -10 4 0 6 5 11 10 11 6 0 10
-2 10 -4z m150 -80 c0 -2 -8 -10 -17 -17 -16 -13 -17 -12 -4 4 13 16 21 21 21
13z"/>
</g>
</svg>
