<?xml version="1.0" standalone="no"?>
<!DOCTYPE svg PUBLIC "-//W3C//DTD SVG 20010904//EN"
 "http://www.w3.org/TR/2001/REC-SVG-20010904/DTD/svg10.dtd">
<svg version="1.0" xmlns="http://www.w3.org/2000/svg"
 width="1300.000000pt" height="1300.000000pt" viewBox="0 0 1300.000000 1300.000000"
 preserveAspectRatio="xMidYMid meet">

<g transform="translate(0.000000,1300.000000) scale(0.100000,-0.100000)"
fill="#000000" stroke="none">
<path d="M1747 11860 c-14 -11 -39 -20 -56 -20 -24 0 -32 -5 -37 -24 -13 -52
-4 -61 66 -64 36 -2 93 0 128 3 l63 7 -3 36 c-3 34 -6 37 -37 40 -19 2 -40 10
-45 17 -20 24 -52 26 -79 5z m51 -23 c2 -12 -3 -17 -17 -17 -12 0 -21 6 -21
13 0 31 32 34 38 4z"/>
<path d="M9856 11740 c-191 -38 -350 -71 -352 -73 -3 -3 86 -213 101 -236 2
-5 57 2 122 14 65 13 205 40 311 60 l192 37 0 134 c0 101 -3 134 -12 133 -7
-1 -170 -32 -362 -69z"/>
<path d="M3425 11780 c-4 -6 1 -35 10 -66 22 -77 83 -137 161 -160 170 -49
348 42 362 185 l5 51 -266 0 c-169 0 -268 -4 -272 -10z"/>
<path d="M1600 11595 l0 -155 48 0 c71 0 90 -18 94 -88 l3 -57 110 0 110 0 3
228 c2 197 0 227 -13 227 -8 0 -15 -4 -15 -10 0 -6 -58 -10 -155 -10 -97 0
-155 4 -155 10 0 6 -7 10 -15 10 -13 0 -15 -24 -15 -155z m228 33 c3 -36 5
-38 38 -38 33 0 34 -1 34 -40 0 -39 -1 -40 -35 -40 -33 0 -35 -2 -35 -35 0
-34 -1 -35 -40 -35 -39 0 -40 1 -40 35 0 33 -2 35 -35 35 -34 0 -35 1 -35 40
0 39 1 40 35 40 34 0 35 1 35 41 l0 40 38 -3 c35 -3 37 -5 40 -40z"/>
<path d="M5249 11580 c-228 -40 -387 -267 -349 -495 22 -132 124 -265 247
-323 53 -25 68 -27 178 -27 115 0 123 1 186 32 245 120 321 429 159 644 -97
129 -265 197 -421 169z m111 -59 c6 -12 10 -111 10 -252 l0 -231 30 -35 c34
-38 39 -77 15 -123 -19 -37 -43 -50 -95 -50 -33 0 -48 6 -71 29 -41 42 -41 97
2 146 l31 35 -1 231 c0 135 4 240 10 251 13 24 55 23 69 -1z"/>
<path d="M5309 11253 c0 -43 0 -117 0 -166 0 -79 -2 -89 -24 -112 -30 -29 -32
-58 -5 -85 48 -48 124 1 100 65 -5 14 -17 28 -25 31 -13 5 -15 33 -15 175 0
144 -2 169 -15 169 -12 0 -15 -16 -16 -77z"/>
<path d="M9910 11428 c-189 -37 -312 -66 -322 -75 -41 -37 3 -132 55 -120 77
18 591 117 607 117 27 0 60 39 60 71 0 35 -35 69 -69 68 -14 -1 -163 -28 -331
-61z"/>
<path d="M9659 10742 c-113 -46 -204 -146 -229 -252 -19 -77 -8 -183 25 -249
65 -132 206 -217 348 -209 240 13 399 243 328 477 -27 89 -103 176 -189 217
-77 36 -214 44 -283 16z m207 -255 c28 -26 37 -42 41 -77 11 -116 -126 -183
-208 -101 -78 78 -19 211 94 211 28 0 46 -8 73 -33z"/>
<path d="M2558 10645 c-338 -76 -591 -322 -669 -652 -18 -74 -20 -110 -16
-223 5 -168 31 -263 118 -437 l61 -123 232 0 233 0 121 250 c71 145 130 254
141 260 29 15 56 12 74 -8 9 -9 131 -304 273 -655 141 -351 259 -636 261 -634
2 3 37 92 78 198 41 107 83 200 92 207 13 9 124 12 474 12 l457 0 70 78 c209
232 340 457 394 679 29 120 29 306 0 415 -70 263 -254 482 -479 573 -135 54
-192 67 -333 72 -115 4 -148 2 -224 -16 -175 -42 -316 -122 -436 -247 l-63
-65 -81 79 c-123 119 -202 167 -356 217 -72 23 -106 28 -220 31 -95 3 -155 -1
-202 -11z m176 -141 c17 -17 21 -61 7 -83 -5 -7 -42 -19 -82 -26 -98 -17 -175
-47 -248 -96 -86 -57 -182 -165 -225 -253 -34 -67 -65 -180 -66 -232 0 -26
-48 -49 -79 -39 -33 10 -39 34 -30 105 22 157 90 291 209 411 115 116 239 186
379 214 90 18 117 18 135 -1z"/>
<path d="M905 10581 c-147 -42 -265 -142 -334 -282 -105 -216 -64 -456 108
-622 291 -281 767 -163 891 222 20 62 22 86 18 184 -6 123 -22 180 -78 267
-102 159 -271 251 -458 249 -50 0 -112 -8 -147 -18z m40 -157 c21 -10 38 -27
44 -46 7 -19 11 -137 11 -309 l0 -279 -29 -32 c-28 -31 -33 -33 -101 -33 -68
0 -73 2 -101 33 l-29 32 0 278 c0 244 2 281 18 312 9 19 28 40 42 47 35 18
105 16 145 -3z m344 -216 c44 -40 65 -105 65 -198 0 -205 -127 -296 -207 -147
-19 36 -22 57 -22 147 0 90 3 111 22 147 39 73 97 94 142 51z"/>
<path d="M5654 9656 c-63 -62 -60 -82 25 -170 l70 -71 -70 -71 c-83 -86 -87
-106 -30 -166 32 -35 45 -42 75 -42 32 0 46 9 103 67 l67 66 72 -69 c81 -79
104 -85 154 -44 40 34 62 78 55 107 -4 13 -35 53 -71 88 l-64 63 67 68 c58 59
67 72 67 104 0 30 -8 43 -42 75 -59 56 -80 53 -161 -26 -37 -36 -71 -65 -76
-65 -5 0 -39 29 -76 65 -83 81 -103 83 -165 21z m272 -141 c8 -8 23 -19 32
-24 13 -8 14 -12 5 -22 -10 -10 -16 -8 -31 9 -22 25 -42 31 -22 7 17 -21 5
-31 -15 -12 -18 19 -19 24 -2 42 15 18 15 18 33 0z m-34 -57 c16 -19 21 -20
28 -8 7 12 13 10 30 -10 20 -23 22 -23 31 -7 12 21 29 22 29 2 0 -8 -6 -15
-13 -15 -7 0 -21 -12 -32 -26 l-19 -25 -43 47 c-24 26 -46 44 -50 40 -3 -3 6
-17 21 -30 18 -15 24 -26 17 -30 -10 -6 -61 35 -61 49 0 9 24 34 34 35 5 0 17
-10 28 -22z m92 -9 c-3 -5 -10 -7 -15 -3 -5 3 -7 10 -3 15 3 5 10 7 15 3 5 -3
7 -10 3 -15z m-92 -65 c9 17 11 17 29 0 21 -19 25 -34 8 -34 -6 0 -17 -6 -25
-14 -8 -8 -14 -19 -14 -25 0 -6 -4 -11 -8 -11 -9 0 -102 95 -102 104 0 15 21
3 59 -34 38 -37 43 -39 58 -25 8 9 12 19 9 23 -4 3 -11 0 -16 -7 -6 -11 -13
-9 -34 12 -14 14 -33 30 -42 35 -10 5 -14 14 -9 21 5 9 18 1 42 -25 31 -35 36
-37 45 -20z"/>
<path d="M5920 9434 c0 -10 31 -36 37 -31 3 3 -2 13 -10 22 -16 15 -27 19 -27
9z"/>
<path d="M10550 9680 c-14 -5 -149 -32 -300 -60 -151 -29 -285 -56 -297 -60
-44 -18 -42 -102 2 -122 19 -8 80 0 312 45 158 31 304 58 323 61 66 10 91 76
45 121 -25 26 -43 29 -85 15z"/>
<path d="M7867 9512 c-18 -19 -22 -59 -9 -78 26 -40 95 -35 111 8 23 63 -58
118 -102 70z"/>
<path d="M2704 9300 c-54 -111 -106 -206 -116 -211 -9 -5 -109 -9 -222 -9
-129 0 -206 -4 -206 -10 0 -19 182 -220 290 -321 209 -194 464 -385 784 -586
99 -62 183 -113 187 -113 11 0 369 228 485 310 141 99 308 229 384 299 l55 50
-354 -2 -354 -2 -98 -255 c-54 -140 -106 -261 -116 -267 -27 -20 -60 -15 -81
11 -10 14 -133 308 -272 653 -139 345 -255 634 -259 641 -5 8 -45 -63 -107
-188z"/>
<path d="M7953 9170 c-12 -5 -29 -23 -38 -40 -35 -67 15 -137 90 -127 50 7 75
36 75 87 0 30 -6 44 -31 64 -32 27 -58 31 -96 16z"/>
<path d="M7816 8978 c-9 -12 -16 -29 -16 -38 0 -9 7 -26 16 -38 23 -34 83 -27
104 11 13 24 13 30 0 55 -21 37 -81 44 -104 10z"/>
<path d="M8922 8908 c-18 -6 -51 -27 -72 -47 -34 -32 -48 -60 -111 -231 -40
-107 -76 -199 -81 -204 -4 -6 -8 3 -8 19 0 19 -23 65 -67 132 l-68 103 -91 0
-91 0 5 48 c8 92 -48 149 -136 139 -32 -3 -53 -13 -76 -36 -28 -28 -31 -37
-31 -91 1 -57 -1 -60 -24 -60 -15 0 -35 13 -56 38 -29 33 -38 37 -78 37 -34 0
-52 -6 -71 -24 -14 -14 -26 -30 -26 -38 0 -10 -45 -13 -207 -15 l-208 -3 -5
-330 c-4 -293 -7 -334 -23 -367 -21 -41 -39 -60 -82 -82 -28 -15 3 -16 390
-16 l420 0 -3 -149 c-5 -192 -19 -181 215 -181 213 0 213 0 213 115 l0 75
1285 0 1285 0 0 -85 c0 -73 3 -86 19 -95 12 -6 93 -10 195 -10 145 0 177 3
190 16 25 24 27 209 5 319 -32 158 -139 282 -281 326 -32 11 -75 31 -95 46
l-36 28 -616 3 c-339 2 -630 1 -647 -3 -18 -3 -48 -17 -68 -30 -34 -23 -46
-25 -154 -25 l-117 1 -130 209 c-71 115 -151 244 -177 287 -66 108 -88 138
-126 163 -38 27 -111 34 -160 18z m108 -78 c25 -25 26 -61 3 -88 -60 -71 -161
10 -107 86 20 29 76 30 104 2z m-1340 -275 c35 -18 55 -71 41 -107 -12 -31
-57 -68 -83 -68 -28 0 -76 27 -88 49 -19 37 -12 81 19 112 33 33 67 37 111 14z
m629 -21 c28 -35 26 -69 -4 -99 -30 -30 -64 -32 -99 -4 -33 26 -36 79 -6 109
30 30 83 27 109 -6z m-244 -369 c30 -29 32 -58 5 -85 -41 -41 -110 -15 -110
42 0 33 31 68 60 68 12 0 32 -11 45 -25z"/>
<path d="M1043 8660 c-27 -11 -43 -40 -43 -79 l0 -31 -60 0 c-64 0 -113 -18
-124 -45 -3 -9 -6 -102 -6 -205 0 -185 0 -189 24 -217 l24 -28 259 -3 c294 -4
336 0 369 33 24 24 24 28 24 209 0 117 -4 194 -11 210 -14 31 -56 46 -125 46
-53 0 -54 1 -54 29 0 73 -33 91 -162 90 -51 0 -103 -4 -115 -9z m227 -59 c25
-48 18 -51 -110 -51 -128 0 -135 3 -110 51 10 17 22 19 110 19 88 0 100 -2
110 -19z m-80 -231 c0 -27 3 -30 31 -30 29 0 30 -2 27 -37 -3 -33 -7 -38 -30
-41 -22 -3 -28 -9 -28 -28 0 -20 -5 -24 -30 -24 -25 0 -30 4 -30 24 0 19 -6
25 -27 28 -24 3 -28 8 -31 41 -3 35 -2 37 27 37 28 0 31 3 31 30 0 27 3 30 30
30 27 0 30 -3 30 -30z"/>
<path d="M5190 7990 c0 -15 7 -20 25 -20 18 0 25 5 25 20 0 15 -7 20 -25 20
-18 0 -25 -5 -25 -20z"/>
<path d="M7035 7945 c9 -43 33 -65 69 -65 l31 0 -30 20 c-16 11 -41 32 -53 47
l-24 28 7 -30z"/>
<path d="M5170 7776 c0 -7 9 -16 20 -19 17 -4 20 -14 20 -66 0 -34 4 -61 10
-61 6 0 10 27 10 60 0 47 3 60 15 60 8 0 15 9 15 20 0 17 -7 20 -45 20 -32 0
-45 -4 -45 -14z"/>
<path d="M5200 7525 c0 -85 0 -85 -26 -85 -14 0 -23 -4 -19 -10 3 -5 33 -10
66 -10 33 0 59 4 59 10 0 6 -11 10 -25 10 -25 0 -25 1 -25 85 0 69 -3 85 -15
85 -12 0 -15 -16 -15 -85z"/>
<path d="M0 3255 l0 -3255 3250 0 3250 0 0 3255 0 3255 -3250 0 -3250 0 0
-3255z m4658 2679 c128 -64 192 -215 147 -345 -9 -24 -62 -113 -118 -198
l-102 -154 -5 264 c-6 262 -6 264 -32 315 -15 28 -48 70 -73 92 -53 47 -50 49
61 51 57 1 80 -4 122 -25z m-733 -139 c30 -29 31 -45 4 -79 l-20 -26 -506 0
c-563 0 -543 -2 -543 66 0 65 -12 64 543 64 l498 0 24 -25z m467 -602 l3 -367
54 80 c103 151 164 194 286 202 124 7 230 -51 290 -159 27 -49 30 -62 30 -149
0 -74 -4 -103 -19 -130 -10 -19 -89 -138 -174 -264 -108 -158 -168 -238 -196
-258 -23 -16 -50 -44 -61 -61 -19 -30 -20 -31 -23 -9 -3 16 -9 21 -20 18 -47
-14 -91 -16 -129 -8 l-43 10 0 -201 c0 -111 4 -197 8 -191 5 5 62 87 126 181
149 220 190 253 326 261 59 3 87 0 130 -17 148 -56 233 -234 183 -381 -11 -34
-84 -152 -195 -315 -171 -253 -208 -301 -256 -333 -26 -17 -96 -115 -117 -165
-14 -31 -14 -29 -15 47 0 65 -2 77 -15 72 -22 -8 -124 13 -167 35 -140 72
-202 257 -135 403 15 32 43 80 63 107 l36 49 -316 0 -316 0 2 -307 3 -308 323
-3 322 -2 0 -146 c0 -113 -3 -144 -12 -138 -7 4 -55 41 -105 81 -51 40 -95 73
-98 73 -2 0 -2 -13 1 -29 3 -16 0 -40 -8 -54 -20 -38 -111 -132 -116 -119 -10
32 -52 79 -85 97 -45 24 -54 20 -115 -54 -67 -83 -63 -103 50 -217 l92 -94
-452 0 -452 0 -2 303 -3 302 -327 3 -328 2 0 610 0 610 328 -2 327 -3 3 -296
2 -296 197 -6 c108 -4 254 -7 325 -7 l128 0 0 305 0 305 235 0 c204 0 234 2
229 15 -5 13 -114 15 -890 15 l-884 0 0 635 0 635 985 0 985 0 2 -367z m-2407
-702 c89 -40 176 -180 220 -357 l25 -97 0 -636 1 -636 33 -374 33 -374 29 -24
c78 -62 10 -58 1020 -61 l921 -2 -53 -167 c-33 -102 -62 -176 -76 -191 -50
-54 -16 -52 -1000 -52 -1045 0 -937 -10 -1072 100 -88 72 -115 104 -152 184
-31 68 -19 -43 -150 1458 l-88 1016 18 57 c20 63 76 133 129 159 43 21 113 20
162 -3z m1625 -501 l0 -190 -192 2 -193 3 -3 175 c-1 96 0 180 2 187 4 10 50
13 196 13 l190 0 0 -190z m605 -640 c20 -38 19 -113 -1 -151 -8 -17 -18 -29
-21 -26 -2 3 1 15 7 28 13 23 9 129 -5 162 -12 29 3 19 20 -13z m-195 -42 l0
-22 16 22 c21 30 41 29 21 -2 -14 -21 -14 -26 0 -45 21 -31 6 -41 -17 -11
l-20 25 0 -22 c0 -14 -6 -23 -15 -23 -11 0 -15 11 -15 43 0 24 3 47 7 50 13
13 23 7 23 -15z m140 12 c0 -5 -11 -10 -24 -10 -29 0 -44 -33 -26 -55 18 -21
33 -18 27 5 -4 15 0 20 14 20 14 0 19 -7 19 -25 0 -22 -4 -25 -33 -25 -55 0
-76 43 -40 82 17 19 63 25 63 8z m-1301 -379 c11 -7 8 -14 -15 -35 -38 -34
-78 -32 -80 4 -1 14 3 28 10 32 15 11 68 10 85 -1z m1451 -290 c0 -29 -37 -68
-75 -81 -61 -20 -120 10 -144 73 l-11 27 115 0 c106 0 115 -2 115 -19z m-809
-347 c64 -60 77 -134 36 -195 -66 -98 -186 -107 -260 -20 -49 59 -47 137 5
197 41 47 61 54 131 51 47 -3 62 -8 88 -33z m-332 -80 c27 -34 26 -50 -4 -79
-29 -30 -54 -32 -83 -5 -27 26 -28 64 -2 90 28 28 64 25 89 -6z m549 10 c43
-30 15 -114 -38 -114 -29 0 -60 36 -60 69 0 31 30 61 60 61 9 0 26 -7 38 -16z
m347 -936 c34 -19 76 -61 96 -98 11 -20 15 -101 17 -372 l3 -348 -1160 0
-1161 0 0 345 c0 268 3 353 14 378 15 38 76 95 109 101 12 3 31 7 42 10 11 2
468 3 1015 2 907 -1 998 -2 1025 -18z"/>
<path d="M3146 5268 c13 -61 63 -79 61 -23 -1 24 -5 34 -13 31 -7 -3 -15 2
-18 10 -3 8 -13 14 -21 14 -13 0 -15 -6 -9 -32z"/>
<path d="M3032 5195 c1 -20 6 -35 14 -35 6 0 14 -7 18 -15 9 -25 29 -17 24 10
-3 14 -1 28 3 31 16 9 9 24 -10 24 -11 0 -23 5 -26 10 -13 21 -24 9 -23 -25z"/>
<path d="M3645 5129 c-4 -6 -13 -8 -21 -5 -9 3 -14 -1 -14 -12 0 -10 -5 -23
-12 -30 -18 -18 6 -40 26 -23 7 6 20 10 27 9 8 -2 13 3 11 11 -1 7 2 19 9 27
11 13 5 34 -11 34 -5 0 -12 -5 -15 -11z"/>
<path d="M3722 5029 c-13 -5 -20 -14 -17 -19 4 -6 2 -17 -5 -25 -14 -17 6 -33
22 -17 6 6 17 8 24 5 9 -3 14 2 14 15 0 12 5 24 10 27 16 10 11 25 -7 24 -10
0 -28 -4 -41 -10z"/>
<path d="M2556 4129 c-45 -39 -59 -85 -42 -142 11 -40 14 -42 53 -45 40 -3 43
-1 63 38 12 23 23 40 25 38 2 -1 20 -43 40 -93 48 -116 46 -113 61 -76 13 31
14 31 88 31 l74 0 31 46 c39 59 48 104 29 152 -28 75 -140 109 -202 61 l-26
-21 -34 21 c-52 33 -117 29 -160 -10z m84 3 c0 -4 -15 -12 -32 -17 -24 -7 -38
-21 -52 -48 -22 -45 -35 -42 -16 4 17 41 100 92 100 61z"/>
<path d="M3899 4136 c-14 -30 -4 -76 16 -76 11 0 15 12 15 44 0 52 -15 68 -31
32z"/>
<path d="M4230 4111 c0 -39 4 -51 16 -51 12 0 14 10 12 47 -4 66 -28 70 -28 4z"/>
<path d="M2634 3951 c-15 -25 -25 -31 -53 -31 l-35 0 39 -41 c22 -23 67 -59
99 -81 59 -41 59 -41 90 -24 17 9 51 32 75 51 l44 35 -57 0 -58 0 -15 -40
c-14 -36 -33 -54 -33 -31 0 5 -17 50 -39 101 l-38 93 -19 -32z"/>
<path d="M3856 3884 c-15 -40 -3 -104 20 -104 10 0 14 15 14 60 0 45 -4 60
-14 60 -8 0 -17 -7 -20 -16z"/>
<path d="M4270 3840 c0 -53 2 -61 18 -58 14 3 17 14 17 58 0 44 -3 55 -17 58
-16 3 -18 -5 -18 -58z"/>
<path d="M3338 3539 c-21 -12 -24 -39 -5 -40 6 0 2 -4 -10 -9 -27 -11 -30 -45
-7 -58 16 -9 16 -11 0 -33 -13 -19 -16 -49 -16 -154 0 -89 4 -135 12 -143 7
-7 41 -12 83 -12 42 0 76 5 83 12 18 18 16 265 -2 298 -12 20 -12 26 0 35 18
13 7 55 -15 55 -14 0 -14 2 -1 10 12 7 12 13 4 27 -13 21 -98 29 -126 12z m85
-46 c-13 -2 -33 -2 -45 0 -13 2 -3 4 22 4 25 0 35 -2 23 -4z m47 -243 l0 -120
-75 0 -75 0 0 120 0 120 75 0 75 0 0 -120z"/>
<path d="M3357 2962 c-21 -23 -22 -60 -1 -83 14 -15 13 -18 -15 -27 -25 -9
-32 -8 -43 9 -9 13 -17 16 -28 10 -12 -8 -12 -12 3 -29 16 -17 16 -20 2 -32
-50 -41 -61 -153 -22 -210 32 -48 69 -72 120 -77 60 -7 110 11 146 52 58 67
61 158 7 222 -20 24 -21 30 -10 41 8 7 14 17 14 21 0 11 -30 23 -30 13 -1 -25
-17 -32 -49 -21 -28 10 -30 13 -15 24 24 17 23 74 -1 91 -26 19 -59 17 -78 -4z
m67 -5 c12 -9 17 -23 14 -42 -3 -26 -7 -29 -39 -30 -32 -2 -36 1 -32 19 4 17
3 18 -6 6 -9 -13 -11 -11 -11 7 0 24 24 53 44 53 7 0 20 -6 30 -13z m-33 -144
c1 -17 2 -17 6 0 6 23 33 21 74 -6 90 -60 88 -181 -4 -237 -40 -25 -67 -25
-68 -2 -1 16 -2 16 -6 0 -6 -23 -30 -23 -70 2 -60 36 -83 110 -53 177 27 62
118 111 121 66z"/>
<path d="M3834 1001 c-116 -29 -171 -176 -103 -275 75 -110 252 -100 308 17
69 141 -54 295 -205 258z"/>
<path d="M8435 5877 c-76 -43 -108 -153 -71 -242 14 -34 17 -35 68 -35 l54 0
28 57 c38 77 34 83 148 -207 10 -25 10 -25 26 15 8 22 17 42 19 45 3 3 53 7
111 10 l107 5 40 58 c35 51 40 66 43 125 3 82 -22 134 -83 170 -58 33 -157 28
-209 -12 -33 -25 -39 -26 -54 -13 -59 52 -159 62 -227 24z m100 -7 c3 -6 -13
-19 -37 -29 -51 -22 -71 -43 -93 -95 -21 -50 -43 -36 -26 16 22 68 133 145
156 108z"/>
<path d="M10772 5878 c-6 -7 -12 -26 -14 -43 l-3 -30 -192 -3 -193 -2 0 -200
c0 -183 8 -240 24 -175 7 27 52 55 89 55 29 0 73 -33 82 -60 6 -19 16 -20 165
-20 149 0 159 1 165 20 9 27 53 60 81 60 37 0 74 -22 90 -52 13 -24 20 -28 60
-28 41 0 45 2 42 22 -2 18 -10 22 -43 22 -29 1 -41 5 -43 19 -3 14 4 17 32 17
35 0 36 1 36 40 0 36 -4 42 -36 57 -37 18 -52 50 -78 166 -6 26 -8 27 -76 27
-56 0 -70 3 -70 15 0 8 -9 15 -20 15 -16 0 -20 7 -20 33 0 18 -5 38 -12 45
-16 16 -53 15 -66 0z m-92 -188 c0 -27 3 -30 30 -30 28 0 30 -3 30 -35 0 -32
-2 -35 -30 -35 -27 0 -30 -3 -30 -30 0 -27 -3 -30 -30 -30 -27 0 -30 3 -30 30
0 27 -3 30 -30 30 -28 0 -30 3 -30 35 0 32 2 35 30 35 27 0 30 3 30 30 0 27 3
30 30 30 27 0 30 -3 30 -30z m358 -29 c20 -66 18 -71 -38 -71 l-50 0 0 55 0
55 38 0 c36 0 40 -2 50 -39z"/>
<path d="M8522 5605 c-21 -44 -23 -45 -69 -45 l-47 0 49 -51 c75 -76 208 -163
237 -155 13 3 59 32 103 64 l80 57 -64 3 c-35 2 -69 1 -76 -2 -7 -2 -21 -27
-31 -56 -11 -31 -23 -50 -32 -48 -7 2 -38 64 -68 138 -31 74 -56 136 -58 137
-1 1 -12 -18 -24 -42z"/>
<path d="M10426 5449 c-33 -26 -37 -88 -6 -119 31 -31 93 -27 119 6 24 30 26
52 10 87 -21 47 -80 60 -123 26z m72 -62 c4 -20 -25 -34 -40 -19 -15 15 -1 44
19 40 10 -2 19 -11 21 -21z"/>
<path d="M10945 5458 c-49 -26 -59 -77 -24 -122 16 -20 29 -26 60 -26 50 0 79
27 79 75 0 64 -61 103 -115 73z m61 -59 c8 -14 -21 -43 -35 -35 -6 4 -11 16
-11 27 0 21 34 27 46 8z"/>
<path d="M7619 4841 c-13 -10 -28 -34 -34 -52 -8 -24 -19 -35 -36 -37 -36 -5
-44 -18 -29 -46 12 -23 6 -43 -59 -220 l-72 -194 19 -39 c18 -35 19 -42 6 -72
-13 -32 -12 -51 5 -51 4 0 14 18 21 39 10 32 20 42 54 55 l41 16 73 200 c61
166 77 200 93 200 28 0 36 30 14 46 -16 12 -17 18 -7 52 17 55 15 79 -8 102
-25 25 -51 25 -81 1z m15 -180 c15 -6 26 -17 24 -24 -3 -6 -36 -96 -74 -199
-63 -172 -71 -188 -98 -198 -41 -14 -44 -13 -61 20 -14 28 -13 36 58 225 80
217 70 206 151 176z"/>
<path d="M7463 4401 c-18 -48 -33 -97 -33 -107 0 -34 15 -47 48 -40 30 7 34
14 100 193 4 12 -12 21 -63 36 -18 6 -24 -4 -52 -82z"/>
<path d="M9525 4566 c-144 -23 -270 -73 -358 -140 -26 -20 -51 -36 -55 -36 -4
0 -27 16 -51 35 -24 19 -47 35 -52 35 -14 0 -76 -83 -112 -150 -67 -123 -101
-258 -116 -453 -5 -67 -8 -124 -6 -126 2 -2 11 4 20 13 37 37 93 4 125 -73 13
-32 14 -32 64 -26 399 48 690 168 964 397 50 43 92 72 92 66 0 -7 21 -54 46
-106 62 -128 161 -229 286 -293 l87 -44 39 43 c24 26 48 42 62 42 l23 0 -6
153 c-4 117 -11 175 -31 252 -26 101 -86 237 -128 288 l-23 29 -54 -43 c-37
-29 -57 -40 -66 -33 -117 86 -214 131 -348 160 -98 21 -302 27 -402 10z"/>
<path d="M11590 4467 c0 -8 -17 -25 -37 -38 -77 -50 -78 -54 -81 -300 l-3
-219 188 1 c103 0 182 3 176 6 -22 8 -14 20 37 53 l50 32 0 150 c0 86 -5 167
-12 190 -12 40 -67 98 -93 98 -8 0 -15 9 -15 20 0 19 -7 20 -105 20 -81 0
-105 -3 -105 -13z m267 -221 c26 -22 28 -30 28 -94 0 -61 -3 -74 -24 -96 l-24
-26 24 0 c51 0 53 -16 6 -49 -25 -17 -50 -31 -56 -31 -17 0 -13 41 6 62 16 17
11 18 -120 18 -74 0 -143 3 -152 6 -26 10 -45 59 -45 118 0 44 5 60 26 85 l26
31 138 0 c132 0 140 -1 167 -24z"/>
<path d="M11900 3925 c-8 -9 -8 -15 -2 -15 12 0 26 19 19 26 -2 2 -10 -2 -17
-11z"/>
<path d="M10578 3345 c-18 -21 -36 -30 -59 -31 -32 -1 -33 -3 -55 -78 -63
-218 -203 -422 -373 -541 l-71 -50 0 -137 c0 -115 2 -138 15 -138 30 0 253 51
345 79 104 31 255 87 341 125 l56 24 -39 79 c-82 167 -118 322 -127 538 l-6
160 -27 -30z"/>
<path d="M8895 3340 c-3 -5 -17 -10 -31 -10 -13 0 -24 -2 -24 -5 0 -2 -9 -74
-20 -159 -32 -247 -72 -410 -132 -529 l-29 -58 93 -43 c161 -75 404 -147 581
-171 l47 -6 0 148 0 148 -46 29 c-66 42 -159 130 -216 206 -67 87 -153 265
-180 373 -22 84 -30 98 -43 77z"/>
<path d="M7253 3266 c-89 -29 -176 -108 -216 -194 -33 -72 -31 -208 4 -282 36
-77 77 -121 151 -161 60 -32 68 -34 163 -34 118 0 171 21 245 95 74 74 95 127
95 245 0 90 -3 105 -28 153 -62 117 -165 183 -297 189 -45 2 -92 -3 -117 -11z
m177 -86 c0 -11 -7 -20 -15 -20 -12 0 -15 -14 -15 -67 l1 -68 50 -23 c58 -28
99 -81 99 -129 l0 -33 -95 0 -95 0 0 -86 0 -87 -45 5 c-101 12 -163 92 -153
197 6 65 43 114 103 136 l45 18 0 68 c0 55 -3 69 -15 69 -8 0 -15 9 -15 20 0
18 7 20 75 20 68 0 75 -2 75 -20z"/>
<path d="M12023 3254 c-10 -4 -13 -52 -13 -191 0 -155 3 -190 17 -213 16 -28
51 -50 79 -50 27 0 64 -32 64 -56 0 -12 -4 -26 -10 -29 -5 -3 -10 -26 -10 -50
0 -24 5 -47 10 -50 6 -3 10 -31 10 -61 0 -30 5 -54 10 -54 6 0 10 27 10 60 0
33 4 60 10 60 6 0 10 20 10 45 0 25 -4 45 -10 45 -5 0 -10 14 -10 31 0 37 23
58 63 59 18 0 40 11 58 29 l29 30 -2 198 -3 198 -150 2 c-82 1 -156 -1 -162
-3z m297 -141 l0 -78 -140 0 -140 0 0 78 0 77 140 0 140 0 0 -77z m-150 -103
c0 -6 -7 -13 -15 -16 -21 -8 -67 4 -60 16 8 13 75 13 75 0z m5 -55 c0 -12 -50
-19 -71 -11 -9 3 -12 11 -9 16 8 14 80 9 80 -5z m-7 -52 c2 -9 -8 -13 -32 -13
-36 0 -56 14 -34 24 22 8 61 2 66 -11z"/>
<path d="M12095 3130 c-4 -6 10 -10 34 -10 23 0 41 5 41 10 0 6 -15 10 -34 10
-19 0 -38 -4 -41 -10z"/>
<path d="M12095 3070 c3 -5 22 -10 41 -10 19 0 34 5 34 10 0 6 -18 10 -41 10
-24 0 -38 -4 -34 -10z"/>
<path d="M11688 2164 c-85 -20 -155 -59 -224 -126 -322 -309 -105 -848 340
-848 279 0 497 215 496 489 -1 95 -13 149 -52 230 -98 199 -340 309 -560 255z
m527 -275 c-3 -8 -42 -36 -87 -62 -61 -36 -84 -45 -92 -36 -7 7 -7 13 -1 16 6
2 48 25 95 52 47 27 86 48 88 46 1 -1 0 -9 -3 -16z m-213 -96 c10 -9 18 -28
18 -42 0 -23 -19 -36 -167 -121 -92 -52 -171 -96 -177 -98 -6 -1 -21 15 -33
37 l-22 39 177 101 c97 55 179 101 181 101 3 0 13 -7 23 -17z"/>
<path d="M11750 1619 c7 -11 14 -19 16 -16 7 7 -7 37 -17 37 -6 0 -5 -9 1 -21z"/>
<path d="M11720 1615 c0 -15 18 -40 24 -34 3 3 -1 14 -9 25 -8 10 -14 15 -15
9z"/>
<path d="M11696 1585 c9 -14 19 -24 21 -21 7 7 -16 46 -28 46 -5 0 -2 -11 7
-25z"/>
<path d="M11672 1560 c14 -22 24 -19 15 5 -4 8 -11 15 -17 15 -6 0 -6 -7 2
-20z"/>
<path d="M7420 1968 c-48 -25 -90 -77 -90 -113 0 -12 11 -32 24 -44 l24 -22
38 20 c51 28 128 28 172 1 l33 -20 30 20 c35 26 36 41 4 96 -46 79 -148 105
-235 62z m100 -18 c0 -13 7 -20 20 -20 13 0 20 -7 20 -20 0 -13 -7 -20 -20
-20 -13 0 -20 -7 -20 -20 0 -26 -30 -26 -37 -1 -3 11 -13 21 -24 24 -10 3 -19
10 -19 17 0 7 9 14 19 17 11 3 21 13 24 24 7 25 37 25 37 -1z"/>
<path d="M7420 1797 c-67 -35 -82 -71 -78 -195 l3 -103 25 4 c14 3 35 8 48 12
15 5 22 3 21 -6 0 -8 -27 -27 -59 -42 -46 -22 -66 -38 -85 -71 -14 -24 -25
-55 -25 -70 l0 -27 108 3 107 3 3 32 c2 17 19 60 37 95 34 62 35 63 35 28 0
-19 3 -45 6 -57 6 -20 3 -23 -25 -23 -30 0 -31 -2 -31 -40 l0 -40 71 0 c68 0
70 1 63 23 -10 34 9 10 22 -26 9 -26 16 -32 40 -32 21 0 28 4 25 15 -2 8 -7
40 -11 70 -5 30 -11 62 -14 71 -6 14 -88 57 -140 74 -15 4 -16 9 -8 17 9 9 18
9 37 0 50 -23 60 -17 65 41 9 117 5 154 -24 197 -47 71 -135 90 -216 47z m158
-131 c40 -25 43 -29 37 -59 -9 -43 -30 -74 -55 -82 -12 -4 -19 -12 -17 -18 2
-7 -7 -34 -20 -60 -23 -46 -25 -48 -39 -30 -14 17 -14 17 -5 -4 16 -31 14 -33
-19 -33 -30 0 -30 1 -30 53 l0 52 21 -25 c20 -24 20 -24 9 -1 -7 12 -10 31 -7
42 3 12 -2 20 -14 24 -23 8 -49 54 -49 88 0 16 13 34 39 55 22 18 43 41 46 53
7 21 7 21 33 -4 15 -13 46 -37 70 -51z m67 -230 c-14 -10 -17 -21 -12 -52 l5
-39 -14 33 c-16 37 -5 72 23 72 15 0 14 -2 -2 -14z m43 -18 c14 -14 16 -48 3
-48 -5 0 -16 -3 -24 -6 -10 -3 -17 3 -21 21 -10 41 14 61 42 33z"/>
<path d="M7440 1640 c0 -5 5 -10 10 -10 6 0 10 5 10 10 0 6 -4 10 -10 10 -5 0
-10 -4 -10 -10z"/>
<path d="M7540 1640 c0 -5 5 -10 10 -10 6 0 10 5 10 10 0 6 -4 10 -10 10 -5 0
-10 -4 -10 -10z"/>
<path d="M7483 1503 c9 -2 25 -2 35 0 9 3 1 5 -18 5 -19 0 -27 -2 -17 -5z"/>
<path d="M7734 1445 c-4 -9 -2 -50 2 -93 8 -70 11 -77 33 -80 33 -5 41 8 32
50 -5 22 -5 36 0 32 10 -6 12 66 3 90 -8 21 -63 21 -70 1z m60 -11 c11 -29 6
-42 -19 -46 -30 -6 -39 5 -31 38 7 27 40 33 50 8z"/>
<path d="M8415 1137 c-158 -53 -260 -168 -287 -325 -44 -260 170 -491 435
-469 137 12 264 98 328 224 33 64 34 72 34 178 0 104 -2 114 -32 175 -41 83
-109 152 -191 192 -56 28 -77 33 -156 35 -56 2 -106 -2 -131 -10z m156 -110
c48 -32 61 -86 32 -137 l-20 -38 35 -7 c53 -10 87 -30 100 -60 12 -27 17 -260
6 -289 -7 -19 -64 -22 -65 -3 0 9 -2 10 -6 0 -3 -10 -40 -13 -134 -13 l-129 0
0 40 0 40 68 0 c38 0 62 4 54 8 -7 5 -26 54 -42 110 -39 137 -45 172 -29 172
8 0 4 9 -9 23 -16 16 -22 36 -22 66 0 54 14 79 53 96 45 20 69 18 108 -8z
m-211 -214 c-2 -47 -27 -233 -33 -239 -3 -4 -13 -4 -22 -1 -12 5 -15 26 -15
109 0 91 2 104 22 125 26 27 48 30 48 6z"/>
<path d="M10383 950 c-97 -20 -186 -89 -230 -178 -24 -50 -28 -69 -28 -147 0
-79 4 -97 28 -142 58 -112 153 -173 277 -181 60 -3 86 0 131 17 155 59 244
226 205 383 -44 172 -214 282 -383 248z m97 -269 c0 -26 4 -30 33 -33 30 -3
32 -5 32 -43 0 -38 -2 -40 -32 -43 -29 -3 -33 -7 -33 -33 0 -27 -3 -29 -35
-29 -32 0 -35 2 -35 30 0 27 -3 30 -30 30 -29 0 -30 2 -30 45 0 43 1 45 30 45
27 0 30 3 30 30 0 28 3 30 35 30 32 0 35 -2 35 -29z"/>
</g>
</svg>
