<?xml version="1.0" standalone="no"?>
<!DOCTYPE svg PUBLIC "-//W3C//DTD SVG 20010904//EN"
 "http://www.w3.org/TR/2001/REC-SVG-20010904/DTD/svg10.dtd">
<svg version="1.0" xmlns="http://www.w3.org/2000/svg"
 width="1100.000000pt" height="700.000000pt" viewBox="0 0 1100.000000 700.000000"
 preserveAspectRatio="xMidYMid meet">

<g transform="translate(0.000000,700.000000) scale(0.100000,-0.100000)"
fill="#000000" stroke="none">
<path d="M4128 5999 c-16 -9 -18 -29 -18 -184 0 -175 0 -175 23 -175 12 0 32
3 45 6 21 6 22 10 22 135 l0 129 1425 0 1425 0 0 -630 c0 -528 2 -630 14 -630
7 0 28 -3 45 -6 l31 -6 0 670 c0 596 -2 672 -16 686 -14 14 -163 16 -1497 16
-988 -1 -1488 -4 -1499 -11z"/>
<path d="M8680 4636 c0 -13 6 -26 14 -29 11 -5 10 -19 -5 -84 -30 -126 -49
-294 -49 -443 0 -149 19 -317 49 -443 15 -65 16 -79 5 -84 -8 -3 -14 -16 -14
-29 l0 -24 150 0 150 0 0 24 c0 13 -5 26 -12 28 -9 3 -9 16 -2 49 10 41 8 50
-29 123 -94 190 -161 479 -183 779 l-7 97 101 0 c117 0 132 4 132 36 l0 24
-150 0 -150 0 0 -24z"/>
<path d="M6140 4490 l0 -150 24 0 c13 0 26 5 28 11 3 8 30 6 93 -9 230 -53
505 -63 728 -26 l37 7 0 -102 0 -101 45 0 45 0 0 110 0 109 38 10 c47 14 62
14 62 1 0 -5 11 -10 25 -10 l25 0 0 150 0 150 -25 0 c-16 0 -25 -6 -25 -16 0
-10 -6 -14 -14 -11 -55 21 -84 18 -153 -16 -141 -72 -340 -129 -553 -161 -114
-18 -318 -34 -326 -27 -2 2 -4 55 -4 118 l0 113 -25 0 -25 0 0 -150z"/>
<path d="M4108 4336 l4 -295 -39 -20 c-55 -27 -64 -42 -70 -108 -5 -55 -4 -59
20 -72 22 -12 29 -12 42 -1 9 7 15 23 14 34 -1 12 1 33 5 48 7 23 11 26 26 18
25 -14 66 -13 89 2 15 9 25 9 46 0 24 -11 27 -17 23 -52 -2 -24 0 -36 6 -30 8
8 16 43 28 115 2 16 -7 22 -49 34 l-53 14 0 303 0 304 -47 0 -48 0 3 -294z"/>
<path d="M4114 3854 c-17 -14 -17 -15 -1 -10 10 3 28 6 40 6 18 0 19 2 7 10
-20 13 -23 13 -46 -6z"/>
<path d="M4220 3856 c0 -2 7 -6 15 -10 8 -3 15 -1 15 4 0 6 -7 10 -15 10 -8 0
-15 -2 -15 -4z"/>
<path d="M4196 3835 c-3 -9 -6 -22 -5 -28 0 -7 5 -1 10 12 5 13 8 26 5 28 -2
2 -6 -3 -10 -12z"/>
<path d="M4125 3820 c-8 -13 4 -32 16 -25 12 8 12 35 0 35 -6 0 -13 -4 -16
-10z"/>
<path d="M4215 3820 c-7 -12 2 -30 16 -30 5 0 9 9 9 20 0 21 -15 27 -25 10z"/>
<path d="M4204 3778 c3 -10 -1 -18 -12 -21 -12 -3 -11 -5 6 -6 24 -1 27 6 11
29 -9 13 -10 13 -5 -2z"/>
<path d="M4173 3713 c9 -2 23 -2 30 0 6 3 -1 5 -18 5 -16 0 -22 -2 -12 -5z"/>
<path d="M3047 3452 c-73 -76 -57 -261 26 -300 56 -27 121 5 146 71 21 54 15
67 -29 67 -33 0 -40 3 -40 20 0 17 7 20 40 20 36 0 40 2 40 25 0 34 -35 102
-59 115 -39 20 -95 12 -124 -18z"/>
<path d="M4522 3444 c-43 -51 -56 -112 -41 -181 14 -60 62 -123 94 -123 14 0
11 7 -13 35 -66 75 -67 206 -2 275 24 26 25 30 10 30 -10 0 -32 -16 -48 -36z"/>
<path d="M3650 3341 c-19 -10 -39 -29 -44 -43 -12 -34 0 -78 22 -78 16 1 16 1
0 14 -25 19 -23 30 16 70 40 43 52 45 59 7 3 -15 17 -42 31 -58 l25 -29 -32 3
c-27 3 -29 2 -14 -7 10 -6 28 -13 40 -14 36 -4 47 -15 47 -46 0 -26 3 -30 27
-28 19 2 30 11 37 30 9 25 13 26 58 21 72 -9 101 24 82 94 -9 31 -55 48 -95
34 -26 -9 -36 -8 -49 4 -50 45 -151 58 -210 26z"/>
<path d="M4587 3328 c-8 -30 10 -58 37 -58 32 0 50 24 42 55 -5 20 -12 25 -40
25 -26 0 -35 -5 -39 -22z"/>
<path d="M3650 3190 c-2 -25 -4 -29 -7 -12 -5 27 -23 30 -23 3 0 -23 29 -36
36 -17 3 8 4 25 1 38 -3 17 -5 14 -7 -12z"/>
<path d="M3700 3170 c0 -11 7 -20 15 -20 8 0 15 9 15 20 0 11 -7 20 -15 20 -8
0 -15 -9 -15 -20z"/>
<path d="M3614 3139 c-3 -6 -2 -15 3 -20 5 -5 9 -1 9 11 0 23 -2 24 -12 9z"/>
<path d="M3620 3086 c0 -25 27 -30 63 -12 17 8 25 16 16 16 -9 0 -31 3 -48 6
-25 5 -31 3 -31 -10z"/>
<path d="M7043 2618 c4 -46 7 -108 7 -139 0 -54 2 -57 28 -63 15 -4 35 -9 45
-12 16 -5 17 7 17 145 l0 151 -51 0 -52 0 6 -82z"/>
<path d="M3914 2639 c-24 -48 -56 -236 -49 -289 4 -25 17 -67 30 -94 26 -55
25 -66 -8 -66 -12 0 -69 -9 -127 -21 -138 -27 -176 -29 -230 -13 -25 8 -46 14
-47 14 0 0 -10 -15 -21 -34 -23 -39 12 -33 -352 -61 -175 -13 -212 -19 -258
-40 -63 -29 -72 -47 -97 -185 -20 -111 -21 -113 -70 -376 l-38 -202 -52 18
c-59 20 -128 54 -168 82 -16 11 -30 18 -33 15 -6 -6 38 -95 72 -147 13 -19 50
-53 83 -75 56 -37 73 -55 53 -55 -4 0 -19 7 -32 16 -15 10 -10 2 11 -18 37
-35 94 -54 119 -38 7 4 35 0 64 -10 29 -10 71 -21 94 -25 23 -4 40 -11 37 -16
-7 -10 -47 -3 -128 21 -31 10 -59 14 -62 10 -11 -18 8 -38 56 -60 l49 -24 -27
-28 -27 -28 202 0 c115 0 202 4 202 9 0 5 17 12 38 16 52 8 59 15 67 57 l7 37
-33 -9 c-19 -6 -46 -10 -61 -10 -16 0 -28 -4 -28 -10 0 -5 -19 -10 -42 -10
-31 0 -55 9 -87 30 -24 17 -49 30 -55 30 -7 0 -7 3 0 10 11 11 154 2 154 -9 0
-3 4 -12 9 -19 7 -11 20 -11 72 -1 35 6 68 15 72 19 4 4 23 64 41 134 l33 127
-26 -5 c-47 -10 -156 -26 -173 -26 -10 0 -18 4 -18 8 0 5 44 14 98 21 55 7
104 16 111 20 7 5 23 49 36 100 l23 92 -56 -53 c-58 -55 -123 -103 -178 -131
l-30 -16 8 62 c4 34 10 124 14 199 l7 137 61 5 c34 3 120 8 191 11 72 3 193
12 270 20 77 8 195 15 261 15 l121 0 6 153 c3 83 11 188 18 232 14 80 14 80
17 -152 l2 -233 23 0 c58 0 67 9 68 64 1 53 4 48 23 -36 6 -28 7 -28 87 -28
l80 0 -3 -87 -3 -88 -57 -3 c-32 -2 -58 -7 -58 -13 0 -5 18 -94 40 -197 22
-103 38 -200 36 -217 -2 -16 10 -79 25 -139 16 -60 29 -110 29 -112 0 -2 609
-4 1354 -4 1235 0 1356 1 1371 16 23 23 15 25 -30 9 -49 -18 -281 -20 -357 -4
-75 16 -143 53 -207 113 -31 29 -72 63 -91 76 -19 14 -41 30 -48 37 -11 10
-196 13 -918 13 -715 0 -906 3 -909 13 -2 6 -9 73 -15 147 -6 74 -22 259 -35
410 -13 151 -29 383 -35 515 -5 132 -15 261 -21 287 l-10 46 -55 -5 c-45 -5
-60 -2 -82 14 -22 16 -48 21 -137 25 -80 4 -124 11 -163 27 -69 28 -78 27 -98
-10z m-990 -1199 c14 -80 26 -152 26 -161 0 -16 -59 -29 -139 -29 -31 0 -33 2
-27 28 4 15 18 54 31 87 13 33 34 104 47 158 14 62 25 91 29 80 4 -10 19 -83
33 -163z m1584 -397 c27 -4 46 -13 53 -24 9 -17 6 -19 -29 -19 -62 0 -95 10
-127 37 l-30 25 45 -7 c25 -3 64 -9 88 -12z"/>
<path d="M3694 1582 c-29 -3 -35 -10 -64 -75 -18 -40 -35 -78 -38 -85 -5 -14
85 29 146 69 17 11 32 16 32 10 0 -13 -61 -53 -141 -93 l-56 -28 -58 -126
c-31 -69 -55 -127 -53 -130 7 -6 116 69 158 109 78 74 102 106 124 170 l23 66
7 -67 c3 -37 6 -115 6 -173 0 -69 4 -111 13 -121 15 -20 87 -45 155 -54 l51
-6 6 33 c3 19 14 113 24 209 l18 174 -29 64 -29 63 -132 -3 c-73 -2 -146 -4
-163 -6z"/>
<path d="M4110 1128 c0 -230 -6 -218 114 -218 l75 0 -18 43 c-10 23 -39 85
-63 137 -25 52 -59 127 -76 165 l-32 70 0 -197z"/>
<path d="M3611 1200 c-25 -21 -74 -56 -109 -76 -57 -34 -92 -73 -92 -104 0
-28 181 123 231 193 26 35 23 34 -30 -13z"/>
<path d="M2471 1014 c-88 -41 -144 -81 -135 -96 10 -16 355 -2 366 15 4 6 8
24 8 40 0 25 -2 27 -45 27 -36 0 -51 5 -69 25 -13 14 -30 25 -37 25 -8 -1 -47
-16 -88 -36z"/>
<path d="M3759 1031 c-49 -19 -149 -82 -169 -106 -11 -13 16 -15 209 -15 207
0 222 1 218 18 -3 9 -8 29 -11 43 -5 24 -11 27 -70 31 -45 4 -73 12 -92 27
-32 25 -27 25 -85 2z"/>
</g>
</svg>
