<?xml version="1.0" standalone="no"?>
<!DOCTYPE svg PUBLIC "-//W3C//DTD SVG 20010904//EN"
 "http://www.w3.org/TR/2001/REC-SVG-20010904/DTD/svg10.dtd">
<svg version="1.0" xmlns="http://www.w3.org/2000/svg"
 width="1170.000000pt" height="630.000000pt" viewBox="0 0 1170.000000 630.000000"
 preserveAspectRatio="xMidYMid meet">

<g transform="translate(0.000000,630.000000) scale(0.100000,-0.100000)"
fill="#000000" stroke="none">
<path d="M5551 6269 c-159 -27 -314 -188 -341 -356 -14 -81 -13 -5353 0 -5423
21 -108 97 -221 196 -291 23 -15 75 -38 117 -49 74 -20 89 -20 1348 -17 701 2
1324 4 1386 5 l112 1 38 38 c22 22 44 57 51 81 l13 42 73 0 74 0 11 -45 c6
-24 25 -60 42 -80 l31 -35 100 0 c84 0 106 3 133 20 46 28 78 99 83 183 4 58
1 75 -23 122 -36 74 -60 85 -178 85 -81 0 -98 -3 -121 -21 -30 -24 -66 -88
-66 -119 0 -18 -6 -20 -81 -20 -80 0 -81 0 -74 23 36 118 35 55 33 2826 -3
2726 -4 2767 -38 2746 -4 -3 -6 3 -4 12 6 24 -53 116 -68 107 -7 -5 -8 -3 -4
5 5 7 0 21 -11 33 -31 36 -145 104 -198 118 -41 11 -281 14 -1315 16 -721 1
-1288 -2 -1319 -7z m2778 -102 c22 -15 41 -30 41 -33 0 -4 -7 -1 -15 6 -8 6
-20 8 -26 4 -7 -4 -9 -3 -6 2 3 6 -17 25 -44 43 -27 19 -49 36 -49 38 0 5 26
-11 99 -60z m87 -141 c19 -38 34 -79 33 -90 -1 -12 -7 -3 -14 22 -16 50 -51
117 -80 152 l-20 25 23 -20 c13 -10 39 -51 58 -89z m-1864 -71 c3 -14 1 -25
-3 -25 -5 0 -9 11 -9 25 0 14 2 25 4 25 2 0 6 -11 8 -25z m575 -1 c2 -13 1
-15 -4 -4 -3 8 -11 19 -17 23 -7 6 -6 7 4 4 8 -2 16 -12 17 -23z m-37 -30 c0
-2 -11 -4 -25 -4 -14 0 -25 4 -25 9 0 4 11 6 25 3 14 -2 25 -6 25 -8z m1367
-76 c-2 -13 -4 -5 -4 17 -1 22 1 32 4 23 2 -10 2 -28 0 -40z m3 -2683 c0
-1456 -2 -2650 -5 -2653 -3 -3 -5 1191 -5 2653 0 1462 2 2656 5 2653 3 -2 5
-1196 5 -2653z m-212 98 l-3 -2418 -1422 -3 -1423 -2 0 2420 0 2420 1425 0
1425 0 -2 -2417z m-1643 -2698 c14 -13 25 -32 25 -42 -1 -11 -6 -6 -14 13 -8
17 -24 34 -37 37 -23 6 -58 -7 -71 -27 -6 -8 -8 -7 -8 1 0 16 40 43 63 43 10
0 29 -11 42 -25z m273 9 c12 -8 22 -20 22 -26 0 -7 -9 -2 -20 10 -26 28 -54
28 -81 1 -20 -20 -21 -30 -3 -86 3 -10 -1 -7 -10 7 -22 36 -20 57 9 85 28 29
51 31 83 9z m266 10 c9 -4 21 -15 27 -26 10 -19 9 -19 -18 2 -24 17 -34 19
-56 11 -58 -22 -38 -111 24 -111 25 0 33 6 42 30 15 39 29 39 15 0 -17 -51
-94 -54 -116 -5 -17 38 -15 53 13 80 25 26 41 30 69 19z m1163 -44 c-16 -5
-38 -5 -50 0 -17 7 -10 9 28 9 43 -1 46 -2 22 -9z m104 -17 c13 -16 12 -17 -3
-4 -10 7 -18 15 -18 17 0 8 8 3 21 -13z m-261 -6 c0 -2 -10 -12 -22 -23 l-23
-19 19 23 c18 21 26 27 26 19z m-1590 -57 c19 0 34 8 44 22 9 12 16 17 16 11
0 -21 -31 -43 -60 -43 -32 0 -60 23 -60 48 1 11 6 8 16 -10 11 -21 22 -28 44
-28z m331 13 c-12 -20 -14 -14 -5 12 4 9 9 14 11 11 3 -2 0 -13 -6 -23z m-33
-20 c-10 -2 -26 -2 -35 0 -10 3 -2 5 17 5 19 0 27 -2 18 -5z m1229 -45 c-3 -8
-6 -5 -6 6 -1 11 2 17 5 13 3 -3 4 -12 1 -19z m283 -7 c0 -5 -10 -11 -22 -13
-20 -3 -23 -9 -23 -43 0 -33 4 -40 25 -46 21 -5 22 -7 8 -14 -46 -19 -77 34
-53 90 11 27 20 35 39 35 15 0 26 -4 26 -9z m544 0 c3 -5 -3 -11 -14 -14 -10
-3 -22 -17 -26 -33 -5 -21 -2 -31 15 -45 13 -11 17 -20 11 -24 -15 -9 -37 11
-44 41 -11 43 38 107 58 75z m74 -46 c3 -37 -11 -60 -32 -52 -24 9 -30 34 -17
63 16 35 45 28 49 -11z m-911 -47 c-2 -13 -4 -3 -4 22 0 25 2 35 4 23 2 -13 2
-33 0 -45z m550 25 c-3 -10 -5 -4 -5 12 0 17 2 24 5 18 2 -7 2 -21 0 -30z
m-497 -154 c0 -6 -4 -7 -10 -4 -5 3 -10 11 -10 16 0 6 5 7 10 4 6 -3 10 -11
10 -16z m561 4 c13 -16 12 -17 -3 -4 -10 7 -18 15 -18 17 0 8 8 3 21 -13z"/>
<path d="M6795 5075 c-14 -13 -25 -33 -25 -45 0 -11 11 -32 25 -45 l24 -25
-30 0 c-48 0 -120 -21 -126 -38 -9 -23 36 -152 53 -152 23 0 26 21 10 75 -17
55 -18 52 9 57 17 2 21 -4 25 -37 4 -35 8 -40 30 -40 14 0 24 5 24 10 -1 6 -4
25 -7 43 -6 32 -6 32 34 32 l41 0 -7 -46 c-6 -43 -5 -45 16 -42 19 2 25 12 32
44 6 35 11 41 27 37 11 -3 20 -6 20 -7 0 0 -7 -25 -15 -55 -8 -30 -12 -58 -9
-63 12 -20 32 -5 47 35 33 93 36 105 24 115 -17 14 -87 32 -124 32 l-32 0 24
25 c14 13 25 34 25 45 0 12 -11 32 -25 45 -31 32 -59 32 -90 0z m63 -42 c-2
-10 -10 -18 -18 -18 -8 0 -16 8 -18 18 -2 12 3 17 18 17 15 0 20 -5 18 -17z"/>
<path d="M7766 5068 c-9 -12 -16 -32 -16 -43 0 -11 7 -31 16 -43 l15 -22 -90
0 c-102 0 -99 3 -81 -80 21 -97 33 -130 47 -130 21 0 27 26 14 73 -24 93 -25
91 57 92 39 1 72 -2 72 -5 0 -4 -6 -28 -14 -53 -16 -52 -14 -56 18 -50 18 4
25 15 35 53 7 27 11 60 9 72 -1 14 7 36 20 52 25 33 26 39 11 69 -16 30 -28
37 -66 37 -22 0 -37 -7 -47 -22z m72 -41 c2 -12 -3 -17 -17 -17 -12 0 -21 6
-21 13 0 31 32 34 38 4z"/>
<path d="M5765 5058 c-3 -7 -14 -49 -25 -92 -23 -92 -19 -103 42 -108 l40 -3
24 -80 c13 -44 23 -91 24 -105 0 -38 26 -68 69 -81 35 -10 45 -9 97 16 85 39
142 55 200 55 53 0 66 8 78 48 10 29 -21 43 -40 18 -11 -16 -32 -18 -158 -20
-80 0 -146 1 -146 4 0 3 9 37 18 75 l18 70 47 5 c25 3 49 9 53 13 4 3 -3 49
-15 102 -19 80 -26 95 -42 95 -23 0 -25 -32 -5 -107 8 -28 11 -54 8 -57 -3 -3
-28 -6 -55 -6 -49 0 -50 0 -32 20 54 60 -25 142 -93 94 -27 -19 -30 -69 -5
-96 17 -19 16 -19 -36 -17 l-53 3 6 35 c19 114 19 131 2 131 -9 0 -19 -6 -21
-12z m165 -108 c-21 -13 -44 8 -28 27 10 12 14 12 27 -2 14 -14 14 -17 1 -25z
m20 -118 c0 -10 -7 -43 -16 -72 l-16 -54 -13 30 c-7 17 -16 50 -20 72 l-7 42
36 0 c28 0 36 -4 36 -18z m66 -187 c-26 -19 -70 -19 -86 0 -11 13 -5 15 46 15
54 -1 57 -2 40 -15z"/>
<path d="M7721 4897 c-6 -6 -11 -30 -11 -53 0 -37 2 -41 23 -37 18 4 22 12 25
48 3 45 -14 65 -37 42z"/>
<path d="M6794 4742 c12 -23 12 -29 -2 -50 -11 -16 -17 -55 -20 -116 -2 -50
-9 -97 -14 -103 -17 -22 -1 -45 29 -41 l28 3 5 112 c5 111 13 140 30 113 9
-14 14 -69 15 -175 0 -46 2 -50 26 -53 35 -4 55 20 34 41 -10 11 -15 36 -15
79 0 35 -5 81 -11 103 -13 48 -15 75 -5 97 6 14 -1 16 -53 16 l-61 0 14 -26z"/>
<path d="M7708 4754 c-3 -2 -1 -32 4 -67 11 -76 3 -126 -28 -193 -13 -28 -24
-55 -24 -61 0 -15 34 -43 53 -43 18 0 24 35 8 45 -6 3 1 28 14 58 14 28 25 67
25 85 0 22 4 31 11 26 12 -7 4 -82 -13 -120 -8 -18 -7 -29 6 -49 9 -14 23 -25
32 -25 20 0 29 27 15 44 -8 10 -8 21 -1 40 14 38 12 124 -5 170 -9 26 -11 46
-5 62 5 13 6 25 2 28 -9 5 -89 6 -94 0z"/>
<path d="M5870 4181 c0 -6 5 -13 10 -16 14 -9 13 -58 -2 -73 -9 -9 -4 -12 22
-12 26 0 31 3 22 12 -7 7 -12 31 -12 55 0 36 -3 43 -20 43 -11 0 -20 -4 -20
-9z"/>
<path d="M5940 4160 c0 -27 3 -30 30 -30 21 0 30 -5 30 -16 0 -13 -7 -15 -30
-10 -34 6 -40 -8 -10 -24 28 -15 60 4 60 36 0 19 -6 26 -30 31 -16 3 -30 9
-30 14 0 5 14 9 30 9 17 0 30 5 30 10 0 6 -18 10 -40 10 -38 0 -40 -2 -40 -30z"/>
<path d="M6760 4181 c0 -6 3 -12 8 -14 9 -6 8 -59 -2 -75 -5 -8 2 -12 19 -12
21 0 26 4 21 16 -3 9 -6 33 -6 55 0 32 -3 39 -20 39 -11 0 -20 -4 -20 -9z"/>
<path d="M6830 4160 c0 -27 3 -30 30 -30 21 0 30 -5 30 -16 0 -13 -7 -15 -37
-9 -33 6 -35 5 -23 -10 8 -10 25 -15 44 -13 25 2 32 8 34 31 3 23 -1 28 -27
33 -40 8 -40 24 0 24 17 0 28 4 24 10 -3 6 -22 10 -41 10 -31 0 -34 -2 -34
-30z"/>
<path d="M7675 4135 c0 -51 2 -55 23 -55 16 0 21 4 15 13 -4 6 -8 30 -8 52 0
27 -5 41 -15 43 -12 2 -15 -9 -15 -53z"/>
<path d="M7734 4175 c-10 -25 3 -43 32 -47 15 -2 30 -9 32 -17 4 -11 -3 -12
-32 -7 -30 6 -35 4 -30 -9 8 -21 73 -20 81 1 8 22 -9 48 -36 52 -32 5 -25 22
10 22 17 0 28 4 24 10 -10 16 -75 12 -81 -5z"/>
<path d="M6888 3844 c-4 -3 -4 -43 -1 -87 6 -93 -9 -248 -34 -344 -15 -60 -15
-67 1 -99 25 -54 92 -70 164 -37 27 12 67 17 147 18 l110 1 9 27 c14 38 -6 58
-33 33 -18 -16 -26 -16 -163 4 -173 26 -173 27 -160 43 22 28 71 130 66 138
-3 5 2 9 10 9 28 0 69 44 69 75 0 34 -34 65 -69 65 -49 0 -82 -72 -51 -109 12
-14 11 -22 -7 -52 l-21 -36 0 176 c0 151 -2 176 -15 179 -9 1 -19 0 -22 -4z
m142 -226 c0 -15 -32 -21 -40 -7 -13 20 9 43 26 28 8 -6 14 -16 14 -21z m-53
-288 c14 0 21 -4 18 -10 -10 -16 -69 -12 -91 6 -18 15 -17 15 15 10 18 -3 44
-6 58 -6z"/>
<path d="M7740 3820 c-29 -29 -26 -74 8 -99 l27 -20 -117 -1 c-111 0 -118 -1
-118 -20 0 -19 7 -20 116 -20 79 0 113 -3 109 -11 -5 -6 -44 -10 -104 -9 -125
2 -121 3 -121 -20 0 -19 7 -20 108 -20 l107 0 20 -36 c10 -20 29 -44 42 -54
l23 -18 -60 -7 c-43 -5 -63 -12 -70 -25 -16 -30 -12 -49 26 -112 28 -46 34
-62 24 -68 -7 -4 -10 -15 -7 -23 4 -12 23 -15 86 -15 45 0 83 4 87 9 3 5 -15
45 -40 89 -25 43 -46 84 -46 90 0 5 19 10 43 10 65 0 71 13 36 82 -16 32 -35
84 -43 116 -12 54 -14 57 -46 62 l-34 5 27 12 c38 18 41 75 5 106 -27 23 -63
22 -88 -3z m68 -47 c-2 -10 -10 -18 -18 -18 -8 0 -16 8 -18 18 -2 12 3 17 18
17 15 0 20 -5 18 -17z m28 -168 c7 -27 11 -51 9 -53 -5 -6 -45 56 -45 70 0 8
-6 20 -12 27 -11 10 -8 12 11 9 19 -2 26 -12 37 -53z m-46 -179 c0 -8 16 -42
36 -76 28 -45 34 -64 26 -72 -14 -14 -10 -19 -61 69 -46 81 -49 93 -21 93 11
0 20 -6 20 -14z"/>
<path d="M6020 3599 c-14 -6 -63 -49 -110 -98 -67 -69 -102 -96 -167 -129 -45
-24 -84 -46 -87 -51 -3 -4 4 -22 15 -40 16 -27 22 -31 35 -20 8 6 12 19 10 28
-4 12 14 25 72 51 42 19 137 62 211 97 74 35 136 62 138 60 4 -5 -31 -112 -57
-173 -12 -26 -19 -53 -16 -61 4 -10 41 -13 161 -13 133 0 157 2 162 16 10 26
-16 34 -112 34 l-90 0 -3 102 c-1 56 -6 105 -11 108 -4 3 -11 18 -15 33 -7 30
-58 67 -91 66 -11 0 -31 -5 -45 -10z m77 -54 c3 -10 -136 -79 -144 -71 -2 2
17 22 42 45 34 31 53 41 72 39 15 -2 28 -8 30 -13z m39 -242 c-10 -10 -19 5
-10 18 6 11 8 11 12 0 2 -7 1 -15 -2 -18z"/>
<path d="M5946 3361 c-11 -12 -16 -31 -14 -52 6 -63 91 -80 116 -24 17 36 15
48 -8 73 -26 27 -71 29 -94 3z m64 -46 c0 -8 -7 -15 -15 -15 -8 0 -15 7 -15
15 0 8 7 15 15 15 8 0 15 -7 15 -15z"/>
<path d="M5864 3016 c-10 -8 -16 -18 -12 -22 4 -4 14 -2 21 5 8 6 22 9 31 5
18 -7 22 -24 6 -24 -37 0 -60 -18 -60 -45 0 -23 4 -25 45 -25 25 0 45 5 45 10
0 6 -16 10 -36 10 -43 0 -42 22 2 30 44 8 43 50 -2 64 -11 3 -28 0 -40 -8z"/>
<path d="M5972 3014 c-40 -28 -21 -104 27 -104 24 0 51 31 51 58 0 21 -32 62
-48 62 -4 0 -18 -7 -30 -16z m43 -45 c0 -27 -4 -34 -20 -34 -24 0 -33 38 -14
61 19 23 34 11 34 -27z"/>
<path d="M6765 3020 c-3 -5 -1 -11 4 -15 6 -3 8 -11 6 -18 -2 -7 -6 -27 -9
-44 -5 -30 -3 -33 20 -33 20 0 25 4 20 16 -3 9 -6 33 -6 54 0 36 -22 61 -35
40z"/>
<path d="M7661 3019 c-18 -7 -21 -13 -13 -21 8 -8 15 -8 26 1 8 7 20 10 26 6
17 -10 11 -25 -10 -25 -11 0 -20 -4 -20 -10 0 -5 9 -10 20 -10 11 0 20 -7 20
-15 0 -17 -35 -21 -45 -5 -4 6 -11 8 -16 4 -15 -9 10 -34 35 -34 34 0 43 13
43 58 0 31 -5 45 -18 52 -20 11 -17 12 -48 -1z"/>
<path d="M7767 3012 c-33 -36 -14 -102 28 -102 51 0 70 86 25 110 -26 14 -35
13 -53 -8z m51 -46 c-2 -23 -8 -31 -23 -31 -23 0 -33 38 -15 60 19 23 41 6 38
-29z"/>
<path d="M6830 2995 c0 -20 5 -25 24 -25 29 0 43 -17 27 -33 -9 -9 -17 -8 -32
1 -18 12 -20 11 -17 -5 4 -23 57 -25 71 -2 15 24 1 49 -28 49 -14 0 -25 6 -25
14 0 9 8 12 24 9 13 -3 27 0 30 6 5 7 -7 11 -33 11 -37 0 -41 -2 -41 -25z"/>
<path d="M7538 2623 c-9 -2 -48 -44 -87 -93 -40 -50 -111 -121 -164 -164 -141
-116 -132 -106 -114 -123 14 -14 21 -12 69 22 29 21 65 50 81 64 l27 25 -6
-30 c-11 -54 68 -92 101 -48 36 48 -3 115 -57 99 -18 -6 -11 5 27 44 27 28 51
51 52 51 2 0 -6 -18 -17 -40 -21 -42 -20 -60 5 -60 19 0 42 35 61 95 9 27 18
52 20 54 2 2 59 -49 128 -114 103 -97 124 -122 123 -144 -2 -23 2 -26 34 -29
23 -2 40 2 49 13 12 14 5 24 -47 78 -63 65 -99 120 -128 200 -30 81 -89 118
-157 100z m67 -49 c15 -6 60 -82 53 -89 -4 -4 -98 82 -98 89 0 8 24 8 45 0z
m-195 -259 c0 -8 -4 -15 -10 -15 -5 0 -10 7 -10 15 0 8 5 15 10 15 6 0 10 -7
10 -15z"/>
<path d="M6456 2539 c-14 -11 -26 -27 -26 -35 0 -19 -7 -18 -31 5 -12 11 -29
17 -42 14 -52 -11 -147 -45 -153 -54 -3 -6 -25 -7 -50 -3 -66 10 -108 -2 -163
-46 -74 -59 -128 -85 -201 -100 -36 -7 -69 -16 -74 -21 -5 -5 -4 -21 4 -38 14
-35 50 -43 50 -12 0 16 11 22 58 31 104 22 202 50 265 76 43 18 87 27 147 31
l85 5 -33 -21 -33 -21 17 -33 c26 -49 56 -87 70 -87 24 0 26 21 5 56 -12 19
-21 39 -21 45 0 22 17 6 43 -42 30 -53 51 -69 69 -51 7 7 1 28 -22 68 l-33 57
26 19 c16 12 27 29 27 43 0 24 0 24 30 7 27 -15 32 -16 57 -2 23 13 29 24 31
57 2 33 -1 44 -20 57 -30 21 -50 20 -82 -5z m59 -49 c0 -8 -8 -16 -17 -18 -13
-2 -18 3 -18 18 0 15 5 20 18 18 9 -2 17 -10 17 -18z m-128 -37 c3 -7 -17 -12
-61 -15 -72 -3 -84 3 -33 20 40 13 89 11 94 -5z m-267 -31 c0 -9 -91 -44 -98
-37 -5 4 75 44 91 45 4 0 7 -4 7 -8z"/>
<path d="M6105 1950 c-16 -17 -16 -20 -2 -20 9 0 19 5 22 10 9 15 35 12 35 -4
0 -7 -13 -16 -29 -19 -29 -6 -49 -37 -36 -57 8 -13 87 -9 86 5 -1 6 -15 10
-31 10 -34 0 -35 18 -2 23 12 2 27 12 32 22 8 15 5 22 -12 34 -29 21 -41 20
-63 -4z"/>
<path d="M6218 1959 c-34 -19 -15 -109 23 -109 31 0 49 22 49 60 0 29 -5 42
-19 50 -24 12 -31 12 -53 -1z m50 -43 c4 -30 -12 -48 -35 -39 -14 5 -18 54 -6
67 15 15 38 -1 41 -28z"/>
<path d="M7414 1956 c-10 -8 -16 -18 -12 -22 4 -4 14 -1 23 6 15 12 45 8 45
-8 0 -4 -15 -12 -32 -17 -26 -8 -33 -15 -33 -35 0 -23 4 -25 43 -26 30 -1 42
3 42 13 0 10 -9 14 -30 11 -37 -4 -39 9 -3 20 33 9 42 40 17 59 -23 17 -35 16
-60 -1z"/>
<path d="M7528 1958 c-16 -13 -22 -33 -19 -71 0 -9 12 -23 26 -29 21 -9 28 -8
45 7 25 23 26 67 2 88 -22 20 -33 21 -54 5z m36 -14 c20 -8 21 -47 2 -63 -11
-9 -18 -8 -30 4 -19 19 -19 21 -6 46 12 21 12 21 34 13z"/>
<path d="M7650 1605 l0 -65 98 2 97 2 -92 3 -93 4 0 54 0 55 114 0 114 0 10
-27 10 -28 1 26 c1 16 -6 29 -15 33 -9 3 -67 6 -130 6 l-114 0 0 -65z"/>
<path d="M7901 1583 c0 -12 -9 -27 -18 -32 -17 -10 -17 -10 0 -11 20 0 31 20
24 47 -4 15 -5 14 -6 -4z"/>
<path d="M5750 1242 c-8 -3 -18 -10 -22 -16 -11 -15 -10 -284 0 -290 5 -3 67
-8 139 -11 176 -7 169 -15 165 161 -1 76 -6 142 -11 147 -10 10 -245 17 -271
9z m135 -22 c15 -17 16 -24 7 -45 -6 -14 -18 -25 -26 -25 -20 0 -27 -26 -15
-53 8 -19 17 -22 57 -20 26 1 56 3 66 5 25 4 32 -18 7 -25 -15 -3 -18 -10 -14
-27 5 -20 4 -21 -15 -11 -11 6 -24 16 -27 21 -8 13 -52 13 -60 0 -17 -27 -41
18 -51 94 -4 30 -1 35 26 45 17 5 30 15 30 20 0 16 -14 13 -42 -8 -18 -15 -27
-36 -36 -84 -19 -102 -18 -105 34 -127 51 -22 94 -26 111 -9 8 8 18 6 37 -6
14 -10 26 -20 26 -24 0 -14 -134 -9 -174 6 -82 32 -88 50 -60 173 13 57 22 75
47 95 39 30 49 31 72 5z"/>
<path d="M6385 1243 c-11 -3 -23 -10 -27 -17 -9 -13 -11 -258 -2 -280 5 -14
28 -16 150 -16 131 0 144 2 154 19 5 11 10 73 10 138 0 161 4 157 -147 159
-65 1 -127 -1 -138 -3z m204 -29 c20 -14 22 -22 17 -58 -7 -50 -7 -59 0 -116
5 -37 2 -50 -16 -73 -19 -24 -28 -27 -81 -27 -45 0 -64 5 -79 20 -28 28 -35
66 -20 109 9 29 9 43 1 59 -16 31 -13 53 11 79 18 19 32 23 83 23 40 0 68 -6
84 -16z m31 -248 c0 -2 -8 -10 -17 -17 -16 -13 -17 -12 -4 4 13 16 21 21 21
13z"/>
<path d="M6443 1193 c-14 -5 -17 -41 -5 -61 6 -9 16 -10 40 -1 23 8 41 8 62 0
25 -8 32 -7 35 4 3 8 7 21 9 29 8 24 -17 36 -73 35 -31 0 -62 -3 -68 -6z"/>
<path d="M6455 1085 c-28 -27 -33 -71 -12 -99 18 -24 92 -28 120 -6 29 24 26
79 -8 108 -34 29 -70 28 -100 -3z m29 -26 c4 6 12 11 17 11 6 0 7 -5 3 -11 -4
-8 -1 -8 13 -1 22 12 40 4 43 -18 5 -33 -1 -40 -33 -40 -18 0 -39 6 -46 13
-11 10 -13 10 -7 0 4 -8 1 -13 -8 -13 -11 0 -16 9 -16 28 0 32 10 48 21 31 5
-8 8 -8 13 0z"/>
<path d="M6525 1030 c-3 -5 -1 -10 4 -10 6 0 11 5 11 10 0 6 -2 10 -4 10 -3 0
-8 -4 -11 -10z"/>
<path d="M7001 1238 c-12 -4 -21 -15 -22 -25 -3 -104 2 -268 9 -275 6 -6 72
-9 148 -9 117 1 141 4 152 18 8 11 12 57 12 140 0 164 3 161 -158 160 -66 -1
-130 -4 -141 -9z m88 -42 c19 -22 77 -25 90 -4 13 21 61 24 79 6 19 -19 15
-66 -7 -78 -29 -15 -49 -12 -71 10 -11 11 -32 20 -48 20 -16 0 -32 -8 -40 -20
-23 -37 -92 -16 -92 27 0 40 65 68 89 39z m-19 -116 c0 5 7 10 15 10 9 0 15
-9 15 -25 0 -23 4 -25 41 -25 36 0 40 3 37 22 -2 11 2 23 9 25 8 3 12 -18 15
-65 3 -63 1 -69 -14 -61 -10 5 -14 16 -11 29 5 18 0 20 -36 20 -37 0 -41 -2
-41 -25 0 -32 -30 -34 -31 -2 -1 16 -2 18 -6 5 -5 -19 -23 -25 -23 -8 0 5 -7
7 -15 4 -9 -4 -15 0 -15 10 0 9 -4 16 -10 16 -5 0 -10 7 -10 15 0 8 5 15 10
15 6 0 10 7 10 16 0 11 5 14 16 10 12 -4 15 -2 10 9 -4 13 -2 14 14 5 14 -7
20 -7 20 0z m170 -11 c0 -5 4 -8 8 -5 5 3 16 -4 25 -15 14 -16 15 -23 5 -42
-7 -12 -13 -23 -13 -24 0 -1 -12 -4 -28 -8 l-27 -7 0 56 c0 43 3 56 15 56 8 0
15 -5 15 -11z"/>
<path d="M7041 1181 c-17 -11 -7 -41 13 -41 22 0 30 20 15 36 -9 8 -19 10 -28
5z"/>
<path d="M7207 1184 c-16 -16 -7 -44 14 -44 15 0 20 5 17 22 -3 22 -19 33 -31
22z"/>
<path d="M7061 1044 c0 -11 3 -14 6 -6 3 7 2 16 -1 19 -3 4 -6 -2 -5 -13z"/>
<path d="M7640 1240 l-25 -6 0 -149 0 -150 145 -3 c127 -2 146 -1 157 15 18
24 18 253 0 277 -10 14 -32 18 -132 20 -66 2 -131 0 -145 -4z m77 -32 c-2 -7
-10 -14 -18 -14 -8 -1 -17 -2 -21 -3 -4 0 2 -27 13 -58 11 -32 17 -63 15 -70
-3 -7 -2 -13 3 -13 15 0 101 41 101 48 0 4 3 17 6 28 4 16 0 23 -16 27 -32 8
-15 27 25 27 34 0 56 -17 37 -29 -6 -3 -13 -18 -17 -32 -5 -21 -1 -32 19 -52
30 -30 33 -66 8 -97 -15 -18 -30 -22 -92 -25 -52 -2 -82 1 -97 11 -26 16 -30
55 -9 77 13 12 12 24 -10 91 -13 43 -22 82 -19 87 10 14 77 11 72 -3z m188
-46 c-3 -3 -11 0 -18 7 -9 10 -8 11 6 5 10 -3 15 -9 12 -12z"/>
<path d="M7760 1040 c-19 -11 -43 -19 -53 -20 -13 0 -17 -6 -15 -22 3 -21 9
-23 71 -26 74 -4 97 6 97 42 0 48 -41 58 -100 26z m78 -2 c29 -29 -2 -60 -51
-51 -32 6 -33 12 -7 41 23 25 40 28 58 10z"/>
<path d="M9156 5311 c-32 -35 -37 -81 -31 -261 5 -139 3 -185 -8 -222 l-15
-48 99 0 c54 0 99 2 99 5 0 3 -9 38 -20 77 -22 78 -26 173 -10 227 5 19 24 49
41 67 33 34 27 53 -10 28 -44 -32 -89 -127 -108 -234 l-8 -45 -18 70 c-10 39
-21 108 -24 156 -6 85 -3 99 45 192 8 15 -15 6 -32 -12z"/>
<path d="M3543 5235 c-56 -15 -153 -61 -214 -102 -24 -16 -40 -36 -44 -54 -9
-39 -9 -149 0 -188 7 -32 25 -43 25 -16 0 14 46 110 69 144 7 11 19 6 57 -26
53 -43 116 -83 131 -83 5 0 7 16 5 35 -2 19 -2 35 1 35 4 0 34 -14 69 -31 86
-41 142 -95 184 -175 40 -77 60 -97 86 -83 9 5 26 9 37 9 44 0 36 -86 -14
-144 -14 -16 -25 -36 -25 -45 0 -9 -11 -42 -24 -74 -25 -61 -24 -62 31 -13 13
11 24 18 26 15 2 -2 16 -25 31 -52 43 -74 132 -120 201 -103 26 7 26 7 8 36
-22 38 -15 44 26 24 28 -14 40 -15 71 -5 57 17 61 44 13 86 l-38 33 4 103 c10
246 7 291 -19 336 -26 46 -78 88 -125 99 -16 4 -35 13 -42 20 -7 7 -16 14 -21
16 -4 1 -29 33 -55 70 -26 37 -62 79 -80 92 -65 50 -262 71 -374 41z m95 -12
c-10 -2 -28 -2 -40 0 -13 2 -5 4 17 4 22 1 32 -1 23 -4z m-75 -10 c-7 -2 -19
-2 -25 0 -7 3 -2 5 12 5 14 0 19 -2 13 -5z m-28 -21 c-3 -3 -11 0 -18 7 -9 10
-8 11 6 5 10 -3 15 -9 12 -12z m88 -22 c3 -11 1 -18 -4 -14 -5 3 -9 12 -9 20
0 20 7 17 13 -6z m-183 -4 c0 -2 -9 -6 -20 -9 -11 -3 -18 -1 -14 4 5 9 34 13
34 5z m-74 -48 c4 -7 4 -10 -1 -6 -4 4 -20 1 -36 -8 -37 -19 -38 -10 -1 10 15
8 28 15 29 16 1 0 5 -6 9 -12z m55 -75 c13 -16 12 -17 -3 -4 -17 13 -22 21
-14 21 2 0 10 -8 17 -17z m-81 -18 c0 -8 -4 -15 -10 -15 -5 0 -7 7 -4 15 4 8
8 15 10 15 2 0 4 -7 4 -15z m757 -117 c-3 -7 -5 -2 -5 12 0 14 2 19 5 13 2 -7
2 -19 0 -25z m10 -80 c-3 -7 -5 -2 -5 12 0 14 2 19 5 13 2 -7 2 -19 0 -25z"/>
<path d="M3337 4833 c-15 -14 -5 -18 49 -19 50 -1 54 1 38 13 -19 14 -76 18
-87 6z"/>
<path d="M3570 4830 c-11 -7 -4 -10 26 -10 23 0 57 -3 75 -6 l34 -5 -25 15
c-28 17 -88 21 -110 6z"/>
<path d="M3329 4743 c-11 -13 -11 -17 -1 -20 6 -3 12 -11 12 -19 0 -9 11 -14
30 -14 17 0 33 0 38 0 4 -1 8 9 10 20 3 17 6 19 18 9 9 -7 14 -8 14 -1 0 36
-96 56 -121 25z"/>
<path d="M3592 4738 c-17 -17 -15 -29 3 -22 10 4 15 0 15 -14 0 -16 8 -21 40
-24 39 -3 58 11 44 33 -3 5 2 9 10 9 8 0 18 -4 21 -10 3 -5 12 -10 18 -10 7 0
-1 12 -16 25 -21 19 -39 25 -76 25 -26 0 -52 -5 -59 -12z"/>
<path d="M3437 4423 c18 -2 50 -2 70 0 21 2 7 4 -32 4 -38 0 -55 -2 -38 -4z"/>
<path d="M3568 4385 c-15 -14 -38 -30 -50 -35 -22 -8 -22 -9 -2 -9 11 -1 35
15 54 34 39 40 38 47 -2 10z"/>
<path d="M3414 4352 c22 -24 37 -32 60 -31 31 2 31 2 4 6 -16 2 -28 9 -28 14
0 5 -5 9 -12 9 -6 0 -21 8 -32 17 -12 10 -8 3 8 -15z"/>
<path d="M10365 4353 c-58 -14 -66 -51 -84 -363 -11 -178 -25 -600 -37 -1103
-5 -202 -10 -280 -19 -285 -8 -5 -14 -47 -17 -124 l-5 -118 30 0 30 0 -6 183
c-4 100 -3 331 3 512 26 848 31 976 40 1065 16 154 21 180 42 203 18 20 19 20
12 2 -34 -95 -54 -391 -48 -735 6 -346 29 -441 103 -411 20 9 36 27 48 54 17
41 18 31 24 -593 3 -349 8 -787 10 -972 2 -185 0 -340 -4 -344 -4 -4 -7 -61
-7 -126 l0 -118 31 0 32 0 -6 121 c-3 79 -9 124 -17 129 -10 6 -15 143 -21
551 -10 705 -13 1461 -6 1669 3 91 2 143 -2 115 -6 -35 -9 9 -11 145 -2 182
-15 432 -18 365 -1 -16 3 -192 8 -390 13 -449 4 -532 -59 -589 -21 -20 -22
-20 -41 0 -38 38 -45 118 -45 514 1 380 10 525 41 598 21 52 45 39 71 -38 22
-64 32 -66 13 -2 -8 29 -7 32 5 22 8 -7 16 -22 16 -34 1 -17 2 -18 6 -3 6 24
-31 81 -62 95 -14 7 -27 11 -28 11 -1 -1 -11 -4 -22 -6z"/>
<path d="M2985 4232 c-42 -20 -95 -74 -95 -96 0 -7 16 -18 36 -24 34 -10 38
-9 61 18 47 57 147 48 185 -16 19 -32 63 -64 88 -64 37 0 -18 129 -72 166 -53
37 -143 44 -203 16z"/>
<path d="M10482 4200 c0 -19 2 -27 5 -17 2 9 2 25 0 35 -3 9 -5 1 -5 -18z"/>
<path d="M10498 3955 c3 -115 6 -212 8 -214 7 -7 2 271 -6 349 -4 41 -5 -19
-2 -135z"/>
<path d="M2945 3996 c-91 -43 -135 -112 -135 -211 0 -133 85 -219 230 -232 52
-4 77 -1 122 16 31 12 61 27 67 34 6 8 7 43 3 96 l-7 84 -54 37 c-30 21 -60
49 -67 63 -19 36 -28 103 -15 111 54 34 -74 35 -144 2z"/>
<path d="M9232 2697 c-2 -384 -1 -408 16 -405 12 2 19 16 23 48 l7 45 0 -45
c0 -62 0 -60 23 -52 18 7 20 17 22 98 2 72 0 88 -10 78 -8 -8 -14 -44 -15 -91
l-2 -78 -3 75 c-3 46 1 83 8 97 13 25 39 31 40 11 2 -45 -3 -173 -9 -186 -5
-15 -4 -15 11 -3 16 12 17 49 15 415 l-3 401 -5 -300 -5 -300 -50 0 -50 0 -5
300 -5 300 -3 -408z m23 -299 c-3 -50 -7 -94 -10 -96 -3 -3 -5 38 -5 91 0 60
4 97 10 97 7 0 9 -32 5 -92z"/>
<path d="M9520 2691 c0 -270 3 -402 11 -406 5 -4 21 -4 35 -1 l24 6 -2 398 -3
397 -32 3 -33 3 0 -400z"/>
<path d="M8994 2926 c-2 -6 -3 -153 -2 -326 l3 -315 40 0 40 0 3 314 c1 213
-1 318 -9 327 -12 15 -69 15 -75 0z"/>
<path d="M4629 2804 c-47 -57 -200 -152 -299 -185 -86 -29 -247 -37 -319 -16
-56 16 -52 18 -93 -53 l-26 -46 -139 -12 c-376 -34 -789 -169 -990 -324 -61
-47 -68 -68 -54 -171 8 -60 25 -103 88 -233 l78 -159 50 -3 c97 -6 237 32 298
81 20 17 16 24 -114 184 -34 41 -60 75 -58 77 2 2 63 8 134 15 72 7 153 15
181 18 l52 6 17 -58 c9 -32 52 -129 96 -216 l79 -158 37 5 c85 11 167 38 222
74 32 21 62 43 65 49 10 15 -5 38 -84 135 -38 47 -70 88 -70 89 0 2 69 7 153
11 296 14 575 54 712 104 185 66 259 158 257 322 -1 152 -67 289 -211 439 -22
23 -41 41 -44 41 -2 0 -11 -7 -18 -16z"/>
<path d="M2150 2048 c-1 -7 -3 -39 -7 -70 -4 -40 -2 -58 6 -58 7 0 11 25 11
70 0 39 -2 70 -5 70 -3 0 -5 -6 -5 -12z"/>
<path d="M1440 2026 c0 -28 43 -186 54 -195 13 -11 -30 178 -45 194 -5 5 -9 5
-9 1z"/>
<path d="M9150 2000 c0 -7 105 -10 318 -10 174 0 323 0 330 0 8 0 12 -18 12
-55 l0 -55 -330 0 c-181 0 -330 -3 -330 -7 0 -5 181 -6 402 -3 l403 5 0 65 0
65 -402 3 c-273 1 -403 -1 -403 -8z"/>
<path d="M1950 1829 c0 -2 10 -33 21 -69 14 -44 22 -99 24 -170 5 -148 4 -138
15 -120 5 8 10 29 10 45 0 17 7 41 16 53 8 12 14 30 11 40 -3 13 -7 10 -17
-13 l-14 -30 -7 60 c-11 100 -30 184 -45 196 -8 6 -14 10 -14 8z"/>
<path d="M2126 1814 c-9 -23 -7 -46 3 -40 12 8 21 45 11 51 -4 3 -11 -2 -14
-11z"/>
<path d="M1530 1767 c0 -16 59 -94 84 -111 14 -9 26 -13 26 -9 -1 11 -110 130
-110 120z"/>
<path d="M2096 1714 c-10 -25 1 -29 14 -5 6 12 7 21 1 21 -5 0 -12 -7 -15 -16z"/>
<path d="M9093 1674 c-17 -44 -13 -44 476 -45 399 0 466 2 473 15 4 8 5 21 2
30 -5 14 -56 16 -475 16 -426 0 -470 -2 -476 -16z"/>
<path d="M1690 1549 c0 -31 12 -79 21 -79 9 0 1 57 -12 80 -7 13 -8 13 -9 -1z"/>
<path d="M9380 1500 l355 -5 0 -48 0 -48 -347 1 c-229 0 -349 -3 -353 -10 -3
-5 -17 -10 -31 -10 -13 0 -24 -5 -24 -11 0 -6 12 -10 28 -9 15 1 202 2 415 1
l388 -1 -3 -47 -3 -48 -415 -5 c-228 -3 -408 -8 -400 -13 8 -4 269 -6 580 -5
l565 3 0 65 0 65 -30 0 -30 0 0 64 0 64 -155 -2 c-85 -1 -158 -5 -164 -8 -5
-3 -6 -1 -2 5 5 9 -85 11 -361 10 l-368 -3 355 -5z m671 -103 c-12 -12 -41 -2
-41 14 0 9 3 9 14 0 16 -14 25 3 28 52 1 24 3 21 5 -12 3 -24 0 -48 -6 -54z
m-15 74 c-3 -4 -69 -9 -147 -10 -97 -2 -139 1 -134 8 4 7 58 11 146 11 77 0
138 -4 135 -9z m-118 -49 c-68 -2 -86 -6 -82 -16 3 -7 -2 -16 -11 -20 -13 -5
-15 -1 -10 14 9 27 -10 25 -29 -2 -11 -15 -16 -18 -16 -8 0 13 -2 13 -10 0 -8
-13 -10 -12 -10 3 0 9 7 17 17 17 16 0 16 1 0 13 -14 10 6 11 110 7 119 -4
122 -5 41 -8z"/>
<path d="M1986 1382 c-4 -13 -5 -26 -2 -29 10 -11 18 4 14 29 l-4 23 -8 -23z"/>
<path d="M1710 1360 c0 -11 5 -20 10 -20 6 0 10 9 10 20 0 11 -4 20 -10 20 -5
0 -10 -9 -10 -20z"/>
<path d="M9558 907 c-129 -37 -167 -122 -112 -256 22 -56 23 -65 11 -80 -65
-74 -81 -216 -34 -306 34 -65 45 -78 87 -104 31 -19 50 -21 173 -21 149 0 171
6 218 57 15 15 37 48 50 73 44 86 27 228 -37 301 -12 13 -10 25 12 80 47 120
24 197 -75 242 -57 25 -224 33 -293 14z m275 -90 c34 -22 43 -58 27 -107 -22
-65 -22 -65 -85 -45 -67 20 -153 17 -204 -9 l-32 -17 -15 36 c-25 61 -28 93
-10 120 23 35 66 45 187 42 81 -2 111 -6 132 -20z m-142 -274 c-14 -16 -19
-33 -15 -46 5 -17 4 -18 -9 -6 -13 12 -12 17 2 39 14 23 31 39 39 40 2 0 -6
-12 -17 -27z m96 -15 c-3 -8 -6 -5 -6 6 -1 11 2 17 5 13 3 -3 4 -12 1 -19z
m-210 -50 c-2 -13 -4 -3 -4 22 0 25 2 35 4 23 2 -13 2 -33 0 -45z m167 9 c7
-6 6 -7 -4 -4 -8 2 -16 12 -17 23 -2 13 -1 15 4 4 3 -8 11 -19 17 -23z m53
-19 c-3 -7 -5 -2 -5 12 0 14 2 19 5 13 2 -7 2 -19 0 -25z m-163 -4 c3 -8 2
-12 -4 -9 -6 3 -10 10 -10 16 0 14 7 11 14 -7z m136 -28 c0 -3 -4 -8 -10 -11
-5 -3 -10 -1 -10 4 0 6 5 11 10 11 6 0 10 -2 10 -4z"/>
<path d="M3393 493 c25 -28 12 -51 -51 -92 -51 -32 -139 -52 -150 -34 -9 13
-126 -7 -143 -24 -16 -16 -1 -71 24 -88 18 -11 71 -14 275 -12 l253 1 8 31 c8
32 -12 142 -29 159 -6 6 -33 9 -60 7 -46 -2 -56 1 -98 35 -26 21 -39 28 -29
17z m202 -173 c3 -11 3 -29 0 -40 -6 -19 -12 -20 -103 -14 -53 3 -133 1 -177
-4 -44 -5 -84 -6 -89 -1 -11 9 3 13 159 39 66 11 134 24 150 29 45 14 53 13
60 -9z m-504 -47 c13 -16 12 -17 -3 -4 -17 13 -22 21 -14 21 2 0 10 -8 17 -17z"/>
<path d="M4078 430 c-20 -33 -35 -60 -32 -60 2 0 20 25 39 55 29 45 41 55 63
55 16 0 37 -6 47 -14 16 -12 17 -17 6 -43 -24 -60 -171 -130 -187 -90 -3 10
-18 7 -60 -13 -54 -25 -73 -51 -61 -84 15 -38 194 -51 303 -22 34 9 80 16 102
16 58 0 68 17 55 93 -6 34 -16 75 -22 90 -10 25 -15 28 -39 22 -20 -4 -33 -1
-42 10 -21 25 -66 45 -102 45 -29 0 -37 -7 -70 -60z m143 -23 c-10 -9 -11 -8
-5 6 3 10 9 15 12 12 3 -3 0 -11 -7 -18z m-66 -67 c-3 -5 -12 -10 -18 -10 -7
0 -6 4 3 10 19 12 23 12 15 0z m195 -54 c0 -28 -18 -46 -47 -46 -29 0 -29 5 5
45 30 35 42 36 42 1z m-336 -21 c37 -14 84 -25 106 -25 43 0 54 -14 18 -24
-37 -9 -150 -7 -191 5 -39 11 -53 28 -43 54 8 21 34 19 110 -10z"/>
<path d="M3309 463 c-13 -16 -12 -17 4 -4 16 13 21 21 13 21 -2 0 -10 -8 -17
-17z"/>
</g>
</svg>
