<?xml version="1.0" standalone="no"?>
<!DOCTYPE svg PUBLIC "-//W3C//DTD SVG 20010904//EN"
 "http://www.w3.org/TR/2001/REC-SVG-20010904/DTD/svg10.dtd">
<svg version="1.0" xmlns="http://www.w3.org/2000/svg"
 width="612.000000pt" height="446.000000pt" viewBox="0 0 612.000000 446.000000"
 preserveAspectRatio="xMidYMid meet">

<g transform="translate(0.000000,446.000000) scale(0.100000,-0.100000)"
fill="#000000" stroke="none">
<path d="M5400 4053 c-14 -10 -43 -18 -65 -18 -32 0 -42 -5 -50 -22 -7 -16
-15 -21 -28 -17 -24 8 -47 -13 -47 -42 0 -19 -5 -24 -24 -24 -14 0 -27 -3 -29
-7 -3 -5 -6 -69 -8 -143 l-4 -135 25 0 c19 0 26 6 28 25 16 156 6 150 240 150
236 0 228 5 244 -150 2 -19 9 -25 28 -25 14 0 26 6 26 13 1 6 3 15 4 20 1 4 1
12 -1 17 -2 6 -6 60 -9 120 l-5 110 -27 3 c-22 3 -28 9 -28 27 0 27 -30 48
-53 39 -10 -3 -18 2 -22 15 -7 23 -45 37 -71 27 -9 -3 -27 3 -41 14 -31 25
-51 25 -83 3z"/>
<path d="M2478 4026 c-94 -25 -175 -102 -200 -190 -6 -23 -20 -49 -30 -59 -21
-21 -20 -36 5 -51 22 -14 68 11 141 76 l56 49 42 -33 c24 -18 57 -41 73 -50
85 -47 276 -65 308 -30 21 23 22 66 2 82 -9 7 -13 20 -10 27 8 22 -13 53 -36
53 -15 0 -19 5 -14 19 7 23 -18 51 -47 51 -11 0 -32 9 -48 20 -30 21 -129 50
-170 49 -14 0 -46 -6 -72 -13z"/>
<path d="M3429 4025 c-62 -20 -141 -92 -167 -153 -11 -26 -24 -72 -28 -102 -4
-30 -13 -64 -20 -75 -23 -32 -16 -55 29 -100 23 -23 57 -61 75 -84 96 -120
288 -127 404 -14 20 20 42 48 48 62 6 15 21 31 33 36 12 6 28 22 35 38 11 23
11 32 -2 59 -9 17 -16 41 -16 53 0 49 -40 152 -76 193 -73 85 -206 122 -315
87z"/>
<path d="M548 4013 c-97 -32 -171 -130 -185 -241 -5 -48 -4 -52 13 -46 25 9
81 50 124 91 19 18 38 33 42 33 4 0 24 -12 45 -26 96 -66 212 -100 313 -92
l45 3 -3 40 c-8 95 -96 208 -189 239 -58 20 -144 19 -205 -1z"/>
<path d="M4563 3732 c-45 -3 -53 -6 -53 -23 0 -27 -46 -26 -53 1 -5 18 -14 20
-112 20 l-108 0 5 -52 c7 -68 31 -88 103 -88 68 0 82 6 101 41 16 31 64 42 64
15 0 -54 145 -79 188 -33 16 17 22 36 22 70 0 26 -3 47 -7 47 -67 5 -107 5
-150 2z m-133 -56 c0 -25 -7 -39 -22 -50 -23 -16 -95 -21 -114 -8 -19 13 -31
43 -26 68 4 23 8 24 83 24 l79 0 0 -34z m270 4 c0 -45 -31 -70 -85 -70 -54 0
-85 25 -85 70 l0 30 85 0 85 0 0 -30z"/>
<path d="M4326 3685 c-9 -26 12 -57 37 -53 17 2 22 10 22 33 0 25 -4 31 -26
33 -17 2 -29 -3 -33 -13z"/>
<path d="M4576 3685 c-9 -26 12 -57 37 -53 17 2 22 10 22 33 0 25 -4 31 -26
33 -17 2 -29 -3 -33 -13z"/>
<path d="M5287 3714 c-13 -13 -7 -51 9 -65 23 -19 49 1 49 37 0 24 -5 30 -25
32 -14 2 -29 0 -33 -4z"/>
<path d="M5537 3714 c-13 -13 -7 -51 9 -65 23 -19 49 1 49 37 0 24 -5 30 -25
32 -14 2 -29 0 -33 -4z"/>
<path d="M1465 3696 c-20 -15 -17 -44 7 -59 12 -8 21 -7 32 2 36 30 -1 85 -39
57z"/>
<path d="M1717 3698 c-20 -11 -22 -39 -5 -56 18 -18 36 -15 48 7 19 36 -9 68
-43 49z"/>
<path d="M500 3685 c-18 -22 -1 -50 31 -50 20 0 24 5 24 30 0 23 -5 31 -21 33
-11 2 -27 -4 -34 -13z"/>
<path d="M746 3682 c-11 -32 4 -53 33 -50 22 2 26 8 26 33 0 25 -4 31 -27 33
-19 2 -28 -2 -32 -16z"/>
<path d="M2380 3670 c0 -39 93 -41 98 -2 4 24 -16 30 -36 10 -9 -9 -15 -9 -24
0 -18 18 -38 14 -38 -8z"/>
<path d="M2635 3680 c-11 -19 16 -40 51 -40 38 0 68 35 39 46 -8 4 -22 1 -31
-6 -11 -10 -18 -10 -26 -2 -15 15 -25 15 -33 2z"/>
<path d="M2480 3547 c0 -23 39 -47 76 -47 36 0 91 37 76 52 -6 6 -20 4 -37 -8
-27 -18 -29 -18 -97 11 -13 5 -18 3 -18 -8z"/>
<path d="M5360 3551 c0 -6 10 -17 22 -25 37 -26 121 -18 133 11 8 23 -3 29
-25 15 -24 -15 -86 -16 -95 -2 -8 13 -35 13 -35 1z"/>
<path d="M1540 3541 c0 -16 43 -41 71 -41 29 0 78 34 67 46 -4 4 -14 1 -22 -5
-19 -16 -74 -17 -88 -3 -14 14 -28 15 -28 3z"/>
<path d="M4412 3528 c7 -21 57 -40 87 -33 35 7 74 45 48 45 -9 0 -19 -4 -22
-10 -3 -5 -24 -10 -45 -10 -21 0 -42 5 -45 10 -9 14 -27 12 -23 -2z"/>
<path d="M625 3130 c-3 -5 -19 -7 -35 -3 -22 4 -31 1 -36 -12 -5 -11 -14 -15
-30 -11 -22 6 -54 -15 -54 -34 0 -5 -10 -10 -22 -12 -16 -2 -24 -11 -26 -28
-2 -13 -13 -30 -23 -38 -10 -7 -19 -21 -19 -31 0 -10 -7 -24 -16 -32 -10 -8
-14 -22 -10 -41 3 -15 1 -30 -4 -33 -13 -8 -13 -55 -1 -55 6 0 11 -17 13 -37
2 -30 7 -38 23 -38 14 0 21 8 23 25 2 14 8 30 14 37 5 6 8 20 7 30 -4 33 11
53 36 47 13 -3 26 -1 29 5 4 5 21 7 40 4 20 -3 36 -1 41 6 5 9 10 9 20 1 9 -7
23 -9 37 -4 13 4 28 6 33 5 6 -2 42 -5 80 -8 96 -5 112 -7 121 -15 3 -4 12
-36 18 -70 9 -52 15 -64 32 -66 18 -3 23 4 29 35 4 21 11 43 17 50 10 13 2 53
-11 53 -4 0 -5 14 -3 31 3 22 0 34 -11 41 -9 5 -14 15 -11 22 3 8 -4 24 -15
35 -12 12 -21 27 -21 34 0 19 -21 37 -42 37 -10 0 -18 7 -18 15 0 17 -29 34
-47 28 -7 -3 -20 3 -29 12 -11 11 -25 14 -44 10 -16 -3 -31 -2 -35 4 -8 14
-42 14 -50 1z"/>
<path d="M1544 3121 c-16 -4 -52 -19 -80 -34 -27 -14 -61 -29 -76 -32 -21 -4
-28 -11 -28 -29 0 -15 -9 -27 -25 -34 -18 -9 -25 -19 -25 -41 0 -16 -7 -34
-16 -41 -24 -21 -14 -72 17 -87 24 -12 27 -19 31 -86 8 -125 89 -238 189 -267
61 -18 150 -12 204 14 96 44 165 157 165 269 0 41 4 55 20 65 23 14 26 35 7
51 -8 6 -19 30 -26 52 -45 150 -200 237 -357 200z m300 -302 c10 -51 6 -122
-8 -147 -7 -13 -25 -32 -40 -42 -28 -18 -29 -18 -51 8 -22 26 -27 27 -124 27
-91 -1 -103 -3 -125 -24 -50 -47 -106 11 -106 110 l0 55 73 12 c82 14 174 55
227 100 l35 30 56 -49 c39 -33 58 -59 63 -80z m-150 -198 c3 -5 -3 -19 -13
-32 -24 -30 -89 -33 -120 -5 -39 36 -27 46 53 46 41 0 77 -4 80 -9z"/>
<path d="M1482 2778 c-23 -23 -7 -68 25 -68 7 0 18 11 25 25 18 40 -20 73 -50
43z"/>
<path d="M1708 2765 c-10 -21 -9 -29 5 -43 31 -31 75 19 47 53 -19 22 -39 18
-52 -10z"/>
<path d="M5324 3100 c-87 -38 -164 -152 -164 -241 0 -17 -9 -42 -20 -56 -27
-35 -26 -79 4 -106 13 -12 27 -33 31 -47 13 -45 65 -117 103 -143 55 -38 86
-47 162 -47 38 0 81 5 97 11 73 27 135 91 161 168 7 18 23 44 37 57 30 28 33
71 7 105 -11 13 -22 46 -25 72 -14 106 -86 201 -174 231 -62 21 -167 20 -219
-4z m196 -480 c0 -5 -10 -18 -22 -30 -29 -27 -91 -27 -118 0 -34 34 -24 40 60
40 45 0 80 -4 80 -10z"/>
<path d="M2497 3100 c-129 -33 -206 -127 -223 -277 -8 -62 1 -103 21 -103 11
0 15 13 15 51 0 61 23 115 53 123 12 3 108 6 213 6 234 0 234 0 243 -106 5
-57 9 -69 25 -72 17 -4 18 2 14 85 -7 144 -61 230 -176 278 -43 19 -138 26
-185 15z"/>
<path d="M4410 3104 c-68 -23 -144 -74 -110 -74 6 0 10 5 10 10 0 6 5 10 12
10 8 0 7 -6 -4 -16 -12 -12 -20 -14 -36 -5 -16 9 -24 8 -36 -4 -8 -9 -13 -21
-10 -28 2 -7 -6 -17 -18 -22 -17 -7 -22 -17 -21 -38 1 -17 -6 -36 -17 -47 -23
-23 -27 -55 -6 -47 8 3 13 -1 12 -10 -4 -51 211 -32 343 29 77 36 122 68 114
81 -3 5 4 4 16 -2 11 -7 21 -17 21 -24 1 -13 53 -74 83 -96 15 -12 17 -10 16
15 0 16 -3 23 -6 17 -6 -16 -43 2 -43 20 0 7 4 6 10 -3 7 -11 12 -12 21 -3 18
18 -24 112 -74 162 -33 34 -46 41 -67 36 -17 -4 -20 -3 -11 3 16 12 -3 27 -21
16 -6 -4 -8 -3 -5 3 12 19 -127 32 -173 17z m270 -80 c0 -2 -9 0 -20 6 -11 6
-20 13 -20 16 0 2 9 0 20 -6 11 -6 20 -13 20 -16z m-443 -70 c-3 -3 -12 -4
-19 -1 -8 3 -5 6 6 6 11 1 17 -2 13 -5z"/>
<path d="M3470 3090 c-8 -5 -24 -10 -35 -10 -11 0 -40 -14 -65 -30 -25 -16
-41 -30 -37 -30 4 0 -4 -11 -18 -26 -14 -14 -32 -42 -41 -62 -17 -41 -31 -221
-14 -187 7 15 8 8 5 -27 -5 -53 2 -81 17 -72 6 4 7 -2 3 -16 -5 -15 -4 -20 4
-16 7 4 9 1 5 -8 -4 -10 12 -33 43 -64 37 -37 64 -54 105 -66 63 -18 124 -21
133 -6 3 6 17 10 30 10 35 0 75 21 75 38 0 9 3 13 6 9 17 -16 90 83 80 109 -3
8 -2 13 3 10 13 -9 22 22 15 51 -5 18 -3 24 5 19 8 -5 11 12 10 61 0 37 -3 62
-6 56 -2 -7 -9 -13 -14 -13 -6 0 -6 7 0 18 11 22 11 71 0 78 -5 3 -9 14 -9 25
0 16 -3 18 -19 9 -11 -5 -24 -10 -30 -10 -16 0 -41 30 -40 48 0 14 2 14 6 2 7
-17 29 -40 38 -40 4 0 12 6 19 13 11 11 9 18 -10 41 -13 15 -29 24 -34 21 -6
-4 -9 -1 -8 6 4 16 -50 48 -93 55 -76 13 -115 14 -129 4z m41 -9 c-7 -5 -11
-14 -7 -20 4 -7 1 -9 -8 -5 -19 7 -9 34 13 34 13 0 13 -2 2 -9z m-76 -21 c-28
-12 -37 -12 -30 0 3 6 16 10 28 9 21 0 21 -1 2 -9z m214 -1 c17 -6 31 -15 31
-19 0 -5 -15 -1 -32 7 -53 26 -53 31 1 12z m-188 -27 c-7 -2 -18 1 -23 6 -8 8
-4 9 13 5 13 -4 18 -8 10 -11z m199 -7 c0 -1 -13 -2 -28 -1 -16 1 -29 6 -29
12 0 9 8 9 29 2 15 -6 28 -11 28 -13z m-253 9 c-3 -3 -12 -4 -19 -1 -8 3 -5 6
6 6 11 1 17 -2 13 -5z m-56 -57 c-10 -9 -11 -8 -5 6 3 10 9 15 12 12 3 -3 0
-11 -7 -18z m379 2 c0 -6 -4 -7 -10 -4 -5 3 -10 11 -10 16 0 6 5 7 10 4 6 -3
10 -11 10 -16z m-403 -19 c1 -11 -1 -22 -5 -24 -4 -2 -8 7 -8 20 -1 13 1 24 5
24 4 0 7 -9 8 -20z m393 -40 c0 -5 -4 -10 -9 -10 -6 0 -13 5 -16 10 -3 6 1 10
9 10 9 0 16 -4 16 -10z m15 -20 c-3 -4 2 -21 10 -38 8 -16 17 -60 19 -98 1
-38 5 -76 8 -84 2 -8 3 -12 1 -7 -8 13 -22 7 -28 -14 -4 -11 -18 -25 -31 -31
-13 -6 -24 -15 -24 -20 0 -5 10 -2 22 6 27 19 38 20 38 4 0 -6 -3 -8 -7 -5 -3
4 -17 -3 -30 -15 -13 -12 -23 -16 -23 -10 0 7 -7 12 -15 12 -8 0 -19 9 -25 20
-7 12 -16 17 -27 13 -11 -4 -14 -3 -9 5 4 7 -3 14 -18 18 -42 10 -70 1 -77
-26 -6 -22 -7 -23 -8 -4 -2 42 -74 41 -108 -2 -21 -26 -22 -27 -47 -11 -30 20
-40 22 -30 5 4 -8 3 -10 -2 -5 -5 5 -9 12 -9 15 -1 4 -7 18 -14 32 -8 13 -13
44 -12 67 0 24 -3 43 -8 43 -5 0 -11 10 -14 23 -6 21 -6 21 8 3 14 -19 15 -19
15 8 0 15 7 43 16 62 l16 34 182 2 c99 2 193 3 208 4 15 1 25 -2 23 -6z m35
-10 c0 -5 -5 -10 -11 -10 -5 0 -7 5 -4 10 3 6 8 10 11 10 2 0 4 -4 4 -10z
m-498 -56 c-9 -16 -10 -14 -9 8 1 15 6 23 11 18 4 -4 4 -16 -2 -26z m313 -191
c-11 -3 -26 -10 -34 -17 -11 -8 -13 -8 -8 1 4 6 1 14 -5 16 -7 3 5 5 27 5 22
0 31 -3 20 -5z m-155 -23 c0 -5 -5 -10 -11 -10 -5 0 -7 5 -4 10 3 6 8 10 11
10 2 0 4 -4 4 -10z m-105 -30 c3 -5 1 -10 -4 -10 -6 0 -11 5 -11 10 0 6 2 10
4 10 3 0 8 -4 11 -10z m33 -15 c-3 -3 -9 2 -12 12 -6 14 -5 15 5 6 7 -7 10
-15 7 -18z m72 15 c0 -5 -5 -10 -11 -10 -5 0 -7 5 -4 10 3 6 8 10 11 10 2 0 4
-4 4 -10z m240 -16 c0 -2 -7 -4 -15 -4 -8 0 -15 4 -15 10 0 5 7 7 15 4 8 -4
15 -8 15 -10z m70 12 c0 -3 -4 -8 -10 -11 -5 -3 -10 -1 -10 4 0 6 5 11 10 11
6 0 10 -2 10 -4z m-230 -31 c0 -8 -4 -15 -10 -15 -5 0 -10 7 -10 15 0 8 5 15
10 15 6 0 10 -7 10 -15z m75 5 c3 -5 2 -10 -4 -10 -5 0 -13 5 -16 10 -3 6 -2
10 4 10 5 0 13 -4 16 -10z m-215 -10 c0 -5 -5 -10 -11 -10 -5 0 -7 5 -4 10 3
6 8 10 11 10 2 0 4 -4 4 -10z m57 4 c-3 -3 -12 -4 -19 -1 -8 3 -5 6 6 6 11 1
17 -2 13 -5z m-19 -23 c11 -6 10 -10 -4 -15 -9 -3 -19 -4 -22 -1 -3 3 1 5 9 5
11 0 11 2 -1 10 -8 5 -10 10 -5 10 6 0 16 -4 23 -9z m85 -8 c-7 -2 -19 -2 -25
0 -7 3 -2 5 12 5 14 0 19 -2 13 -5z m167 -3 c0 -12 -40 -34 -48 -25 -3 3 5 9
18 12 22 6 23 7 4 14 -18 7 -17 8 4 8 12 1 22 -3 22 -9z m-226 -15 c-7 -16
-24 -21 -24 -6 0 8 7 13 27 20 1 1 0 -6 -3 -14z m171 6 c-6 -5 -21 -11 -35
-15 -21 -5 -20 -3 5 9 35 17 42 18 30 6z m-114 -28 c12 -16 12 -17 -1 -7 -8 7
-24 14 -35 17 -19 4 -19 5 1 6 12 0 28 -7 35 -16z"/>
<path d="M3378 2769 c-34 -19 -20 -35 30 -33 26 1 49 3 51 3 2 1 -4 10 -14 21
-20 22 -41 25 -67 9z"/>
<path d="M3618 2773 c-10 -2 -18 -9 -18 -14 0 -5 -1 -12 -2 -16 -2 -3 18 -7
45 -8 50 -3 65 15 28 35 -20 10 -25 11 -53 3z"/>
<path d="M2342 2808 c-7 -7 -12 -35 -12 -63 0 -28 5 -56 12 -63 15 -15 152
-16 179 -2 10 6 19 20 19 30 0 15 7 20 25 20 15 0 25 -6 25 -14 0 -34 29 -46
115 -46 96 0 105 7 105 79 0 60 -17 71 -109 71 -63 0 -81 -4 -94 -18 -10 -10
-17 -24 -17 -30 0 -7 -11 -12 -25 -12 -17 0 -25 5 -25 18 0 10 -5 23 -12 30
-16 16 -170 16 -186 0z m173 -63 l0 -40 -82 -3 -83 -3 0 39 c0 21 3 42 7 46 4
4 41 5 83 4 l75 -3 0 -40z m263 -2 l-3 -48 -75 0 -75 0 -3 48 -3 47 81 0 81 0
-3 -47z"/>
<path d="M2418 2769 c-35 -20 -21 -39 27 -39 49 0 55 8 27 33 -21 19 -30 20
-54 6z"/>
<path d="M2668 2769 c-33 -19 -21 -39 22 -39 41 0 52 14 28 38 -14 14 -27 15
-50 1z"/>
<path d="M750 2775 c-26 -31 13 -82 44 -56 19 16 21 42 4 59 -16 16 -33 15
-48 -3z"/>
<path d="M503 2770 c-42 -17 -28 -38 25 -35 62 3 61 3 33 25 -26 22 -27 22
-58 10z"/>
<path d="M4326 2765 c-9 -26 12 -57 37 -53 17 2 22 10 22 33 0 25 -4 31 -26
33 -17 2 -29 -3 -33 -13z"/>
<path d="M4579 2764 c-16 -20 -1 -48 29 -52 16 -2 23 3 28 22 3 14 3 30 -1 35
-9 16 -41 13 -56 -5z"/>
<path d="M580 2619 c0 -38 92 -52 131 -20 28 22 18 41 -11 23 -24 -15 -86 -16
-95 -2 -8 14 -25 13 -25 -1z"/>
<path d="M4410 2620 c0 -14 55 -40 83 -40 25 0 76 34 67 44 -3 3 -24 -1 -45
-8 -34 -12 -44 -12 -67 0 -32 17 -38 17 -38 4z"/>
<path d="M2500 2611 c0 -29 65 -44 107 -24 33 15 48 42 16 27 -31 -13 -90 -16
-97 -5 -9 13 -26 15 -26 2z"/>
<path d="M585 2186 c-40 -18 -70 -51 -93 -106 -11 -25 -32 -56 -47 -70 -39
-36 -76 -115 -82 -176 l-6 -54 64 0 c111 0 219 36 302 102 l38 30 43 -40 c64
-59 125 -97 137 -85 11 11 -6 103 -28 147 -8 15 -32 47 -52 70 -21 22 -44 57
-50 77 -31 95 -137 144 -226 105z"/>
<path d="M3455 2186 c-39 -17 -81 -67 -93 -109 -5 -18 -26 -50 -47 -72 -46
-48 -72 -103 -84 -181 -6 -33 -13 -71 -17 -86 -10 -41 3 -77 29 -83 13 -4 32
-22 42 -41 62 -115 226 -170 346 -117 57 25 110 71 134 117 11 20 25 36 31 36
32 0 62 88 35 104 -4 3 -11 31 -14 63 -7 76 -37 143 -85 191 -22 22 -43 54
-47 71 -20 93 -138 147 -230 107z m155 -578 c-1 -53 -104 -78 -148 -38 -43 40
-30 50 63 50 61 0 85 -3 85 -12z"/>
<path d="M4398 2116 c-94 -25 -162 -95 -192 -195 -12 -42 -16 -99 -16 -247 0
-183 1 -194 20 -204 25 -14 526 -13 552 1 16 9 18 26 18 203 0 214 -10 271
-61 341 -71 96 -195 135 -321 101z m-128 -261 c0 -14 8 -29 19 -35 12 -6 95
-10 200 -10 192 0 211 5 211 51 0 11 5 17 10 14 6 -4 10 -58 10 -129 l0 -123
-44 -41 c-61 -57 -107 -75 -191 -76 -58 0 -81 5 -127 27 -32 16 -69 42 -83 58
-24 29 -25 36 -25 160 0 79 4 129 10 129 6 0 10 -11 10 -25z"/>
<path d="M4320 1750 c-10 -19 -8 -20 36 -20 38 0 45 3 40 16 -3 9 -6 18 -6 20
0 2 -13 4 -30 4 -19 0 -33 -7 -40 -20z"/>
<path d="M4570 1750 c-10 -19 -8 -20 35 -20 46 0 54 7 33 28 -19 19 -56 14
-68 -8z"/>
<path d="M4416 1621 c-10 -15 35 -41 70 -41 17 0 38 8 47 18 24 26 21 36 -5
18 -29 -20 -67 -20 -89 0 -10 9 -19 11 -23 5z"/>
<path d="M5354 2106 c-61 -20 -85 -36 -78 -48 4 -7 2 -8 -5 -4 -14 9 -80 -61
-81 -86 0 -9 -5 -18 -11 -20 -5 -2 -11 -18 -11 -36 -1 -17 -5 -32 -10 -32 -4
0 -8 -13 -8 -30 0 -27 3 -30 29 -30 36 0 44 -11 33 -42 -13 -35 4 -87 31 -93
12 -3 48 -4 80 -2 55 4 86 22 87 52 0 15 60 12 60 -2 0 -7 9 -22 19 -32 28
-28 141 -28 166 -1 24 26 24 89 0 106 -10 8 -24 14 -29 13 -6 0 -1 -7 12 -16
16 -11 22 -25 22 -53 0 -21 -6 -42 -12 -47 -7 -4 -42 -8 -77 -7 -49 1 -68 6
-78 19 -14 21 -8 75 10 87 6 4 9 10 5 13 -4 4 -15 -6 -24 -22 -10 -15 -23 -31
-28 -35 -15 -10 -46 6 -59 32 -9 17 -24 27 -47 31 l-35 6 28 11 c16 7 33 12
38 12 20 0 69 31 64 40 -3 6 0 7 8 5 12 -5 25 3 76 46 10 9 18 9 33 0 10 -6
23 -9 28 -6 6 3 7 0 4 -8 -7 -19 119 -117 133 -103 8 7 -16 113 -31 141 -51
93 -133 145 -238 151 -36 2 -81 -3 -104 -10z m171 -36 c3 -6 -1 -7 -9 -4 -18
7 -21 14 -7 14 6 0 13 -4 16 -10z m-144 -276 c17 -20 20 -59 6 -78 -10 -14
-29 -19 -78 -20 -35 -1 -70 3 -76 7 -20 14 -16 84 4 95 24 14 131 11 144 -4z"/>
<path d="M5274 1757 c-8 -23 3 -37 31 -37 36 0 55 10 55 31 0 16 -3 17 -25 7
-19 -8 -28 -8 -40 2 -12 10 -16 9 -21 -3z"/>
<path d="M2447 2090 c-123 -31 -211 -132 -224 -256 l-6 -54 68 0 c114 0 208
31 294 96 l43 34 55 -49 c30 -27 71 -57 91 -67 47 -24 61 -42 60 -79 -1 -27
-29 -65 -48 -65 -4 0 -13 -13 -19 -28 -7 -15 -23 -41 -38 -56 -32 -35 -20 -46
53 -46 180 0 226 237 63 321 -22 11 -39 26 -39 35 0 26 -47 108 -82 141 -64
62 -184 94 -271 73z"/>
<path d="M5539 1809 c14 -6 35 -6 50 -1 22 7 18 9 -24 9 -41 1 -46 -1 -26 -8z"/>
<path d="M5520 1751 c0 -31 75 -45 86 -16 9 23 -5 38 -22 24 -11 -9 -21 -9
-39 -1 -22 10 -25 9 -25 -7z"/>
<path d="M500 1741 c-13 -26 4 -64 27 -59 25 5 40 35 27 56 -16 25 -41 26 -54
3z"/>
<path d="M755 1746 c-17 -12 -18 -17 -7 -41 14 -29 38 -31 56 -2 8 12 8 22 0
34 -15 23 -27 26 -49 9z"/>
<path d="M1434 1749 c-2 -4 3 -12 10 -19 21 -16 80 -9 84 11 2 13 -6 16 -44
15 -25 -1 -48 -4 -50 -7z"/>
<path d="M1692 1741 c4 -18 30 -25 64 -17 43 11 28 33 -21 33 -36 0 -45 -4
-43 -16z"/>
<path d="M2360 1734 c-17 -43 26 -74 58 -42 16 16 15 33 -4 52 -23 23 -43 19
-54 -10z"/>
<path d="M2608 1735 c-14 -30 3 -55 38 -55 27 0 40 30 24 60 -15 28 -48 25
-62 -5z"/>
<path d="M5139 1675 c-4 -14 -6 -22 -14 -38 -11 -27 10 -89 41 -118 l26 -24
248 0 c245 0 249 0 273 23 29 28 53 94 42 119 -5 10 -9 22 -9 28 -2 20 -33 15
-43 -7 -21 -45 -85 -108 -131 -130 -67 -31 -197 -31 -264 0 -47 23 -113 88
-129 130 -7 19 -37 32 -40 17z m582 -128 c-10 -9 -11 -8 -5 6 3 10 9 15 12 12
3 -3 0 -11 -7 -18z"/>
<path d="M1540 1616 c0 -20 31 -36 70 -36 39 0 70 16 70 36 0 13 -2 13 -22 0
-12 -9 -34 -16 -48 -16 -14 0 -36 7 -48 16 -20 13 -22 13 -22 0z"/>
<path d="M5377 1610 c15 -17 33 -23 63 -23 30 0 48 6 63 23 l22 23 -25 -8
c-14 -5 -41 -8 -60 -8 -19 0 -46 3 -60 8 l-25 8 22 -23z"/>
<path d="M2440 1590 c0 -25 29 -40 77 -40 48 0 79 20 69 45 -6 16 -8 17 -24 1
-23 -20 -75 -21 -92 -1 -17 21 -30 19 -30 -5z"/>
<path d="M580 1592 c0 -15 24 -31 57 -38 31 -6 93 18 93 36 0 14 -27 13 -36
-1 -7 -11 -66 -8 -96 5 -11 5 -18 4 -18 -2z"/>
<path d="M565 1121 c-115 -32 -190 -113 -210 -227 -4 -21 -14 -46 -22 -55 -22
-26 -27 -83 -10 -118 14 -28 14 -33 -5 -68 -28 -56 -19 -109 26 -150 l36 -33
265 0 c294 0 311 3 341 62 19 37 14 110 -9 136 -13 15 -14 20 -1 36 20 28 17
93 -5 130 -10 17 -22 49 -26 71 -15 86 -75 163 -155 198 -49 22 -174 32 -225
18z m-17 -196 c59 -56 160 -80 227 -55 24 9 32 6 72 -30 25 -22 52 -40 61 -40
10 0 12 -4 4 -12 -17 -22 -23 -73 -12 -103 9 -24 7 -33 -16 -66 -57 -83 -146
-124 -251 -117 -83 6 -135 31 -192 93 -41 44 -42 48 -36 93 3 27 2 60 -4 75
-10 26 -8 32 34 73 25 26 50 62 56 85 7 21 14 39 16 39 2 0 21 -16 41 -35z"/>
<path d="M500 775 c-18 -22 -1 -50 31 -50 20 0 24 5 24 30 0 23 -5 31 -21 33
-11 2 -27 -4 -34 -13z"/>
<path d="M749 774 c-16 -20 -1 -48 29 -52 16 -2 23 3 28 22 3 14 3 30 -1 35
-9 16 -41 13 -56 -5z"/>
<path d="M3424 1112 c-87 -31 -147 -93 -178 -188 -13 -41 -16 -86 -14 -250 l3
-199 290 0 290 0 0 215 0 216 -33 64 c-18 36 -49 78 -68 94 -75 62 -193 81
-290 48z m58 -215 c60 -41 84 -49 233 -86 l30 -7 -3 -95 -2 -94 -41 -37 c-98
-89 -250 -88 -353 3 l-46 41 0 108 0 108 53 51 c28 28 55 51 58 51 4 0 36 -20
71 -43z"/>
<path d="M3388 789 c-26 -15 -23 -58 5 -68 13 -5 27 -5 35 1 17 15 15 65 -4
72 -19 7 -15 8 -36 -5z"/>
<path d="M3628 793 c-40 -9 -26 -73 16 -73 26 0 40 23 31 50 -7 21 -22 28 -47
23z"/>
<path d="M3450 624 c0 -8 16 -22 36 -30 29 -12 43 -13 71 -3 34 11 52 33 39
47 -4 3 -16 1 -26 -6 -24 -15 -76 -16 -85 -2 -10 16 -35 12 -35 -6z"/>
<path d="M4362 1111 c-90 -31 -161 -117 -178 -216 -3 -22 -13 -47 -21 -56 -23
-27 -27 -83 -9 -120 15 -30 15 -34 -4 -64 -24 -39 -25 -73 -4 -118 31 -65 41
-67 343 -67 l270 0 36 35 c30 31 35 42 35 83 0 28 -7 57 -16 71 -13 18 -14 28
-5 47 17 37 13 92 -8 133 -11 20 -22 52 -25 71 -15 91 -102 184 -196 210 -55
16 -160 11 -218 -9z"/>
<path d="M1522 1113 c-15 -3 -22 -10 -18 -19 3 -8 1 -14 -3 -14 -5 0 -11 5
-13 12 -6 16 -96 -49 -103 -74 -4 -10 -10 -18 -14 -18 -14 0 -28 -45 -25 -80
3 -32 3 -33 -6 -10 -8 20 -9 14 -5 -27 2 -34 0 -53 -8 -56 -7 -2 -9 -8 -5 -12
4 -4 13 -3 20 1 7 5 15 9 18 10 16 2 80 39 80 46 0 4 16 8 35 8 19 0 35 -4 35
-10 0 -17 79 -11 123 10 51 25 64 35 100 78 24 30 27 31 27 12 0 -11 5 -26 10
-33 6 -7 24 -30 40 -51 17 -22 43 -47 59 -57 l28 -17 -2 42 c-4 59 -6 64 -15
36 -7 -21 -9 -17 -9 20 1 66 1 65 -31 101 -54 61 -63 69 -81 69 -9 0 -22 7
-29 15 -7 8 -22 14 -34 14 -11 0 -33 3 -48 7 -18 4 -28 2 -28 -5 0 -6 -7 -11
-15 -11 -8 0 -15 5 -15 10 0 10 -25 11 -68 3z m-69 -55 c-35 -17 -27 -27 12
-18 20 5 33 4 29 -1 -3 -5 -16 -9 -30 -9 -13 0 -24 -6 -25 -12 0 -10 -2 -10
-6 0 -8 20 -23 14 -24 -10 -1 -19 -2 -20 -6 -5 -6 22 33 67 56 66 11 0 9 -4
-6 -11z m342 -31 c-11 -6 -21 -5 -28 3 -9 8 -7 9 8 4 l20 -7 -20 23 -20 23 28
-18 c25 -16 26 -19 12 -28z m-55 13 c0 -5 -2 -10 -4 -10 -3 0 -8 5 -11 10 -3
6 -1 10 4 10 6 0 11 -4 11 -10z m-320 -75 c-7 -8 -17 -15 -23 -15 -5 0 -2 9 8
20 21 23 35 19 15 -5z m427 3 c-3 -8 -6 -5 -6 6 -1 11 2 17 5 13 3 -3 4 -12 1
-19z m-29 -48 c7 -11 9 -20 4 -20 -4 0 -13 9 -20 20 -7 11 -9 20 -4 20 4 0 13
-9 20 -20z m-178 -5 c8 -9 8 -15 2 -15 -6 0 -19 -3 -29 -6 -15 -5 -16 -4 -3 5
13 10 13 12 0 21 -13 8 -13 10 1 10 9 0 22 -7 29 -15z m-120 -21 c0 -2 -7 -4
-15 -4 -8 0 -15 4 -15 10 0 5 7 7 15 4 8 -4 15 -8 15 -10z m-157 -34 c3 -11 1
-18 -4 -14 -5 3 -9 12 -9 20 0 20 7 17 13 -6z m501 4 c4 -9 4 -19 1 -22 -3 -3
-5 0 -5 7 0 7 -4 9 -10 6 -5 -3 -10 1 -10 9 0 21 16 20 24 0z"/>
<path d="M2495 1101 c-79 -22 -150 -74 -183 -135 -23 -42 -42 -105 -42 -138 0
-28 1 -28 66 -28 105 0 215 38 297 103 l38 30 27 -25 c75 -69 138 -112 152
-103 11 7 -9 105 -31 146 -25 51 -85 108 -136 130 -47 22 -144 32 -188 20z"/>
<path d="M5284 776 c-10 -25 0 -51 20 -54 27 -6 48 25 35 49 -12 22 -47 25
-55 5z"/>
<path d="M5534 776 c-11 -29 0 -51 26 -51 21 0 25 5 25 30 0 24 -5 31 -23 33
-13 2 -24 -3 -28 -12z"/>
<path d="M1453 764 c-8 -22 10 -49 32 -49 22 0 40 27 32 49 -8 21 -56 21 -64
0z"/>
<path d="M1704 765 c-14 -37 26 -69 53 -42 22 22 8 57 -23 57 -14 0 -27 -7
-30 -15z"/>
<path d="M2397 753 c-20 -19 -4 -30 41 -28 26 2 49 4 51 4 2 1 -2 8 -9 16 -12
15 -71 21 -83 8z"/>
<path d="M2653 753 c-7 -2 -13 -10 -13 -18 0 -9 14 -12 48 -10 26 2 49 4 51 4
2 1 -2 8 -9 16 -12 14 -52 19 -77 8z"/>
<path d="M1861 625 c-17 -25 -28 -51 -25 -59 3 -8 0 -17 -5 -21 -6 -3 -9 -12
-5 -18 3 -7 -2 -3 -11 8 -15 19 -17 19 -26 3 -6 -10 -17 -18 -25 -18 -8 0 -13
-4 -10 -9 3 -5 -22 -12 -57 -16 l-62 -8 59 -9 c32 -5 62 -6 65 -1 3 4 29 10
56 11 56 4 88 26 80 53 -3 10 0 21 8 26 23 14 28 43 12 74 -9 16 -17 29 -20
29 -2 0 -17 -20 -34 -45z m49 5 c0 -5 -2 -10 -4 -10 -3 0 -8 5 -11 10 -3 6 -1
10 4 10 6 0 11 -4 11 -10z m-30 -100 c0 -5 -7 -7 -15 -4 -8 4 -15 2 -15 -4 0
-6 6 -13 13 -15 9 -4 9 -6 0 -6 -15 -1 -26 16 -18 29 8 13 35 13 35 0z m-77
-27 c-7 -2 -19 -2 -25 0 -7 3 -2 5 12 5 14 0 19 -2 13 -5z m-60 -20 c-7 -2
-19 -2 -25 0 -7 3 -2 5 12 5 14 0 19 -2 13 -5z"/>
<path d="M2232 648 c-46 -50 -33 -122 28 -153 36 -19 54 -19 89 0 34 17 48 45
28 57 -8 4 -31 32 -52 63 -42 60 -61 67 -93 33z"/>
<path d="M2816 638 c-10 -18 -33 -48 -50 -66 l-31 -33 33 -30 c45 -40 84 -39
128 5 36 36 43 70 22 109 -29 55 -75 62 -102 15z"/>
<path d="M1307 654 c-11 -11 -8 -92 3 -99 6 -4 8 -10 5 -15 -6 -9 50 -59 68
-61 82 -6 96 -6 91 3 -4 5 -20 16 -38 24 l-31 15 35 -6 c31 -5 32 -4 15 6 -11
7 -27 21 -36 31 -20 23 -33 23 -25 1 6 -15 4 -15 -14 2 -11 10 -20 23 -20 29
0 6 4 4 10 -4 5 -8 12 -11 16 -8 3 4 -3 18 -14 32 -10 14 -22 23 -25 20 -3 -3
-4 3 -3 12 1 19 -24 30 -37 18z m23 -25 c0 -6 -4 -7 -10 -4 -5 3 -10 11 -10
16 0 6 5 7 10 4 6 -3 10 -11 10 -16z m10 -48 c0 -24 -1 -24 -15 -5 -18 24 -19
31 0 31 9 0 15 -10 15 -26z m19 -41 c-10 -7 -10 -12 1 -27 14 -17 13 -17 -7 1
-17 14 -19 21 -10 31 7 7 16 11 21 8 4 -3 2 -9 -5 -13z m54 -47 c-7 -2 -19 -2
-25 0 -7 3 -2 5 12 5 14 0 19 -2 13 -5z"/>
<path d="M5360 631 c0 -18 44 -41 76 -41 32 0 85 33 72 45 -4 4 -17 0 -30 -9
-28 -20 -58 -20 -84 -1 -22 17 -34 19 -34 6z"/>
<path d="M1540 617 c0 -15 40 -37 70 -37 29 0 70 22 70 37 0 16 0 16 -39 -3
-28 -14 -37 -14 -59 -3 -15 7 -30 15 -34 17 -5 2 -8 -3 -8 -11z"/>
<path d="M2490 611 c0 -14 25 -31 58 -37 30 -6 92 20 92 38 0 12 -28 10 -35
-2 -3 -5 -24 -10 -45 -10 -21 0 -42 5 -45 10 -8 12 -25 13 -25 1z"/>
<path d="M1810 560 c0 -5 5 -10 10 -10 6 0 10 5 10 10 0 6 -4 10 -10 10 -5 0
-10 -4 -10 -10z"/>
<path d="M1905 550 c-3 -5 -1 -10 4 -10 6 0 11 5 11 10 0 6 -2 10 -4 10 -3 0
-8 -4 -11 -10z"/>
<path d="M1475 500 c-3 -5 3 -10 15 -10 12 0 19 -3 17 -7 -3 -5 25 -9 61 -10
l67 -1 -65 11 c-36 7 -70 16 -77 20 -6 4 -14 3 -18 -3z"/>
</g>
</svg>
